<svg xmlns="http://www.w3.org/2000/svg" width="21" height="26" viewBox="0 0 21 26">
    <g fill="none" fill-rule="evenodd">
        <g fill="#000091" fill-rule="nonzero">
            <g>
                <g transform="translate(-77 -744) translate(78 743) translate(0 2)">
                    <path stroke="#FFF" stroke-width=".2"
                          d="M18.457 7.176L11.685.545C11.329.196 10.845 0 10.341 0H2.443C1.093 0 0 1.07 0 2.392v19.136c0 1.321 1.094 2.392 2.443 2.392h14.114c1.35 0 2.443-1.07 2.443-2.392V8.478c0-.487-.195-.954-.543-1.302zm-6.921-4.898l4.866 4.765h-3.645c-.674-.001-1.22-.536-1.221-1.196v-3.57zm6.107 19.25c0 .587-.486 1.063-1.086 1.063H2.443c-.6 0-1.086-.476-1.086-1.063V2.392c0-.587.486-1.063 1.086-1.063h7.736v4.518c.001 1.394 1.155 2.524 2.578 2.525h4.886c.004.035.004.071 0 .106v13.05z"/>
                    <rect width="11.943" height="1.329" x="3.529" y="13.289" rx=".532"/>
                    <rect width="6.786" height="1.329" x="3.529" y="17.276" rx=".532"/>
                </g>
            </g>
        </g>
    </g>
</svg>
