<?xml version="1.0" encoding="UTF-8" standalone="no"?>
<svg
   xmlns:dc="http://purl.org/dc/elements/1.1/"
   xmlns:cc="http://creativecommons.org/ns#"
   xmlns:rdf="http://www.w3.org/1999/02/22-rdf-syntax-ns#"
   xmlns:svg="http://www.w3.org/2000/svg"
   xmlns="http://www.w3.org/2000/svg"
   xmlns:sodipodi="http://sodipodi.sourceforge.net/DTD/sodipodi-0.dtd"
   xmlns:inkscape="http://www.inkscape.org/namespaces/inkscape"
   sodipodi:docname="via.svg"
   inkscape:version="1.0 (4035a4fb49, 2020-05-01)"
   id="svg887"
   version="1.1"
   viewBox="0 0 36.85268 16.280247"
   height="16.280247mm"
   width="36.85268mm">
  <defs
     id="defs881" />
  <sodipodi:namedview
     inkscape:window-maximized="0"
     inkscape:window-y="84"
     inkscape:window-x="150"
     inkscape:window-height="977"
     inkscape:window-width="1635"
     showgrid="false"
     inkscape:document-rotation="0"
     inkscape:current-layer="g1464"
     inkscape:document-units="mm"
     inkscape:cy="3.7559197"
     inkscape:cx="199.69665"
     inkscape:zoom="0.98994949"
     inkscape:pageshadow="2"
     inkscape:pageopacity="0.0"
     borderopacity="1.0"
     bordercolor="#666666"
     pagecolor="#ffffff"
     id="base" />
  <metadata
     id="metadata884">
    <rdf:RDF>
      <cc:Work
         rdf:about="">
        <dc:format>image/svg+xml</dc:format>
        <dc:type
           rdf:resource="http://purl.org/dc/dcmitype/StillImage" />
        <dc:title></dc:title>
      </cc:Work>
    </rdf:RDF>
  </metadata>
  <g
     transform="translate(-12.60101,-11.044408)"
     id="layer1"
     inkscape:groupmode="layer"
     inkscape:label="Calque 1">
    <g
       transform="translate(-34.773809,-4.5357095)"
       id="g1464">
      <path
         sodipodi:nodetypes="ssssscccccccccccsssssssssssssssssssssssscccssssscsssscsscccssssssssssssscsscsscssssssssscsscssscsssccssccscsscssss"
         id="path1478"
         d="m 71.658228,31.76933 c -1.689833,-0.322244 -3.385291,-1.887522 -4.006456,-3.698832 -0.196259,-0.572288 -0.231924,-0.883788 -0.233405,-2.038553 -0.0019,-1.542726 0.09783,-2.020057 0.643786,-3.078915 1.494578,-2.89866 5.05679,-3.716284 7.603036,-1.745101 l 0.373201,0.288915 0.03068,-0.534263 0.03068,-0.534263 h 1.413525 1.413529 v 5.553144 5.553144 l -1.438768,0.02801 -1.438768,0.02801 V 31.02208 30.453535 l -0.357754,0.314111 c -1.028128,0.902707 -2.558778,1.282852 -4.033253,1.001677 z m 2.486293,-2.679153 c 0.721393,-0.229986 1.596084,-1.082023 1.836468,-1.788898 0.219168,-0.644473 0.223503,-1.982725 0.0085,-2.613807 -0.222464,-0.652897 -0.923594,-1.402969 -1.572265,-1.682022 -0.701015,-0.301568 -1.780525,-0.312172 -2.43223,-0.02389 -0.589743,0.260872 -1.250408,0.923567 -1.516177,1.520832 -0.293316,0.659177 -0.354049,1.865593 -0.128608,2.554829 0.341647,1.044531 0.953653,1.689375 1.920712,2.023764 0.647018,0.223727 1.202215,0.226437 1.883631,0.0092 z m -22.074934,0.85421 c -0.319233,-0.902385 -0.797208,-2.254071 -1.062167,-3.003746 -0.26496,-0.749674 -1.190688,-3.357509 -2.057173,-5.795189 -0.866485,-2.437681 -1.575428,-4.493606 -1.575428,-4.568724 0,-0.19093 2.913266,-0.201083 2.975628,-0.01037 0.0227,0.06941 0.290849,0.830448 0.59589,1.691185 0.305041,0.860738 0.924596,2.609978 1.37679,3.887201 1.357009,3.832877 1.745286,4.900765 1.771751,4.872898 0.08798,-0.09264 1.763765,-4.853411 1.72281,-4.894366 -0.02793,-0.02793 -0.386667,0.158578 -0.797202,0.414453 -1.087765,0.677974 -1.067107,0.568885 0.03548,-0.187375 l 0.951464,-0.652604 0.967001,-2.603558 0.967002,-2.603558 1.397696,-0.0282 c 0.768731,-0.01551 1.429663,0.0072 1.468732,0.05048 0.03907,0.04328 -0.127269,0.620552 -0.369649,1.282832 -0.242376,0.66228 -0.422627,1.222207 -0.400552,1.244281 0.0221,0.02208 0.185201,-0.03488 0.362502,-0.126565 0.394614,-0.204063 2.136273,-0.881332 2.15591,-0.838358 0.0078,0.01705 0.12314,0.247628 0.256336,0.512408 0.133199,0.264779 0.224066,0.497085 0.201933,0.516233 -0.02213,0.01915 -0.449152,0.151586 -0.948936,0.294305 -0.499784,0.142718 -1.269939,0.387478 -1.711459,0.543912 l -0.802759,0.284423 -1.592841,4.392033 c -0.876065,2.415617 -1.804772,4.971325 -2.063795,5.679351 l -0.470952,1.28732 h -1.386795 -1.386795 z m 9.082949,1.45092 c -0.513724,-0.233352 -0.915813,-0.705965 -1.066524,-1.253578 -0.126872,-0.460991 -0.17832,-0.222481 1.109878,-5.1451 0.281143,-1.074324 0.45485,-1.918664 0.401517,-1.951626 -0.127994,-0.07911 -1.178819,1.026784 -1.658752,1.745673 -0.214798,0.321744 -0.42623,0.628219 -0.469847,0.681057 -0.102896,0.124646 -0.886735,-0.636313 -0.886735,-0.860852 0,-0.230814 0.873291,-1.543157 1.453391,-2.184093 0.671457,-0.74187 1.653463,-1.498313 2.542011,-1.958116 1.141444,-0.59067 1.247755,-0.545926 1.403206,0.590572 0.03987,0.291478 0.113401,0.555246 0.163411,0.586153 0.05,0.03091 0.307001,-0.286856 0.571094,-0.706139 0.264097,-0.419282 0.507534,-0.762562 0.540971,-0.762844 0.03343,-3.03e-4 0.215175,0.103475 0.403863,0.23057 0.711327,0.479126 0.928559,1.250148 1.051962,3.733716 l 0.06406,1.28919 -0.366603,0.153176 c -0.201629,0.08425 -0.500486,0.179953 -0.66413,0.212682 l -0.297533,0.05951 v -0.638611 c 0,-0.352119 -0.03793,-0.595581 -0.08455,-0.542694 -0.10232,0.116076 -1.254003,4.394651 -1.198006,4.450649 0.05785,0.05785 0.887101,-0.247888 1.163452,-0.428958 0.289012,-0.189369 0.313026,-0.168403 0.438292,0.382673 0.09851,0.43338 0.09574,0.440173 -0.337106,0.827286 -0.939083,0.839856 -2.724623,1.683049 -3.551782,1.677273 -0.174626,-0.0012 -0.501123,-0.08562 -0.725545,-0.187565 z M 82.183604,22.06134 c -1.04085,-0.287317 -1.892752,-0.548067 -1.893118,-0.579447 -3.82e-4,-0.03138 0.306016,-0.1629 0.680851,-0.292271 0.374839,-0.12937 0.718051,-0.267441 0.762699,-0.306825 0.04464,-0.03938 0.01496,-0.453079 -0.06594,-0.919324 -0.08091,-0.466244 -0.134035,-0.861404 -0.118065,-0.878133 0.03373,-0.03534 2.677469,3.381974 2.677469,3.460925 0,0.07903 -0.0064,0.07751 -2.043898,-0.484925 z m -1.349121,-1.631633 c -3.531668,-1.651086 -8.119229,-2.527936 -11.90253,-2.275006 -0.721447,0.04823 -1.316544,0.07974 -1.32244,0.07003 -0.0059,-0.0097 0.01038,-0.324353 0.03618,-0.69919 l 0.04688,-0.681522 1.729906,0.0018 c 3.269436,0.0035 6.035582,0.646107 9.124459,2.119728 1.234819,0.5891 2.896227,1.539191 3.008102,1.72021 0.07483,0.121074 0.12235,0.137965 -0.720546,-0.256097 z M 64.562304,19.356543 c -0.754795,-0.373617 -1.333384,-1.234076 -1.33522,-1.985697 -7.63e-4,-0.341387 0.2764,-0.942921 0.581272,-1.261209 0.147521,-0.154017 0.495525,-0.347533 0.773341,-0.430035 0.447214,-0.132808 0.564557,-0.132725 1.023628,7.25e-4 0.612437,0.17804 1.354212,0.896923 1.555821,1.507803 0.269558,0.816767 -0.147807,1.788737 -0.930856,2.167805 -0.561561,0.271848 -1.119597,0.27205 -1.667986,6.1e-4 z"
         style="fill:#000091;fill-opacity:1;stroke-width:0.100966" />
    </g>
  </g>
</svg>
