<svg xmlns="http://www.w3.org/2000/svg" width="16" height="16" viewBox="0 0 16 16">
    <g fill="none" fill-rule="evenodd">
        <g>
            <g>
                <path fill="#383838"
                      d="M8 0C3.59 0 0 3.59 0 8s3.59 8 8 8 8-3.59 8-8-3.59-8-8-8zm0 1.455c3.624 0 6.545 2.921 6.545 6.545S11.624 14.545 8 14.545 1.455 11.624 1.455 8 4.376 1.455 8 1.455z"
                      transform="translate(-888 -358) translate(888 358)"/>
                <path fill="#CECECE"
                      d="M10.666 5.455c-.189.003-.37.079-.503.213L6.932 8.805 5.837 7.743c-.186-.185-.457-.256-.71-.185-.252.07-.447.271-.51.526-.063.254.016.523.207.703l1.602 1.554c.283.273.731.273 1.013-.002l3.737-3.629c.218-.206.287-.524.174-.802-.113-.278-.384-.458-.684-.453z"
                      transform="translate(-888 -358) translate(888 358)"/>
            </g>
        </g>
    </g>
</svg>
