<svg xmlns="http://www.w3.org/2000/svg" width="20" height="26" viewBox="0 0 20 26">
    <g fill="none" fill-rule="evenodd">
        <g fill="#000091" fill-rule="nonzero" stroke="#000091" stroke-width=".3">
            <g>
                <g>
                    <path d="M18.586 6.429c0-.145-.07-.273-.178-.35L12.543.126c-.036-.037-.08-.063-.124-.084L12.38.027c-.035-.012-.072-.02-.11-.022-.01 0-.017-.005-.026-.005H1.267C.568 0 0 .577 0 1.286v21.428C0 23.424.568 24 1.267 24H17.31c.698 0 1.267-.577 1.267-1.286V6.471c.001-.015.008-.027.008-.042zM17.136 6H13.09c-.233 0-.422-.192-.422-.429V1.463L17.137 6zm.175 17.143H1.267c-.233 0-.423-.193-.423-.429V1.286c0-.236.19-.429.423-.429h10.555v4.714c0 .71.569 1.286 1.267 1.286h4.644v15.857c0 .236-.19.429-.422.429z"
                          transform="translate(-77 -990) translate(78 991)"/>
                    <path d="M2.956 5.143h5.91c.234 0 .423-.192.423-.429 0-.236-.19-.428-.422-.428H2.956c-.234 0-.423.192-.423.428 0 .237.19.429.423.429zM15.622 8.571H2.956c-.234 0-.423.192-.423.429s.19.429.423.429h12.666c.233 0 .422-.192.422-.429s-.189-.429-.422-.429zM15.622 12.857H2.956c-.234 0-.423.192-.423.429 0 .236.19.428.423.428h12.666c.233 0 .422-.192.422-.428 0-.237-.189-.429-.422-.429z"
                          transform="translate(-77 -990) translate(78 991)"/>
                </g>
            </g>
        </g>
    </g>
</svg>
