<svg xmlns="http://www.w3.org/2000/svg" width="22" height="22" viewBox="0 0 22 22">
    <g fill="none" fill-rule="evenodd">
        <g fill="#000091" fill-rule="nonzero">
            <g>
                <path d="M21.963 5.762c-.011-.029-.022-.057-.038-.084-.01-.016-.022-.03-.033-.044-.017-.023-.033-.045-.054-.065-.014-.014-.03-.025-.046-.037-.015-.012-.028-.026-.045-.036-.008-.005-.016-.006-.024-.01-.006-.004-.011-.01-.018-.013L11.239.297c-.15-.074-.327-.074-.478 0L.295 5.473c-.007.003-.012.01-.018.013l-.024.01c-.016.01-.03.025-.045.036-.016.012-.032.024-.046.037-.02.02-.037.042-.054.065-.011.015-.024.028-.033.044-.016.027-.027.056-.038.085-.005.014-.013.028-.017.043-.013.044-.02.091-.02.14v10.35c0 .2.114.383.295.473l10.466 5.175c.02.01.042.016.063.023l.042.015c.044.011.089.018.134.018.045 0 .09-.007.134-.018l.042-.015c.021-.007.043-.013.063-.023l10.466-5.175c.18-.09.295-.273.295-.473V5.946c0-.049-.007-.096-.02-.14-.004-.016-.012-.029-.017-.044zM11 1.36l4.039 1.998-9.272 4.585-4.039-1.998L11 1.36zm-.534 19.257L1.068 15.97V6.8l9.398 4.647v9.17zM11 10.531L6.961 8.533l9.272-4.585 4.039 1.998L11 10.53zm9.932 5.44l-9.398 4.646v-9.17L20.932 6.8v9.17z"
                      transform="translate(-75 -453) translate(75 453)"/>
            </g>
        </g>
    </g>
</svg>
