<?xml version="1.0" encoding="UTF-8"?>
<svg width="24px" height="22px" viewBox="0 0 24 22" version="1.1" xmlns="http://www.w3.org/2000/svg" xmlns:xlink="http://www.w3.org/1999/xlink">
    <title>Test</title>
    <g id="MENTOR" stroke="none" stroke-width="1" fill="none" fill-rule="evenodd">
        <g id="Mentor---FC---Thématique" transform="translate(-74.000000, -272.000000)" fill="#000091" fill-rule="nonzero" stroke="#FFFFFF" stroke-width="0.2">
            <g id="Test" transform="translate(74.000000, 273.000000)">
                <path d="M8.2,3.95 L7.85,3.6 C7.7,3.45 7.45,3.45 7.3,3.6 L5.325,5.575 L4.425,4.675 C4.275,4.525 4.025,4.525 3.875,4.675 L3.525,5.025 C3.4,5.15 3.375,5.375 3.5,5.525 L5.05,7.45 C5.2,7.625 5.475,7.65 5.625,7.45 L8.225,4.45 C8.35,4.3 8.35,4.1 8.2,3.95 Z"
                      id="Path"></path>
                <path d="M16.625,6.325 L16.625,5.4 C16.625,5.275 16.525,5.175 16.4,5.175 L9.45,5.175 C9.325,5.175 9.225,5.275 9.225,5.4 L9.225,6.325 C9.225,6.45 9.325,6.55 9.45,6.55 L16.4,6.55 C16.525,6.55 16.625,6.45 16.625,6.325 Z"
                      id="Path"></path>
                <path d="M8.2,8.65 L7.85,8.3 C7.7,8.15 7.45,8.15 7.3,8.3 L5.325,10.275 L4.425,9.375 C4.275,9.225 4.025,9.225 3.875,9.375 L3.525,9.725 C3.4,9.85 3.375,10.075 3.5,10.225 L5.05,12.15 C5.2,12.325 5.475,12.35 5.625,12.15 L8.225,9.15 C8.35,9.025 8.35,8.8 8.2,8.65 Z"
                      id="Path"></path>
                <path d="M9.45,9.875 C9.325,9.875 9.225,9.975 9.225,10.1 L9.225,11.05 C9.225,11.175 9.325,11.275 9.45,11.275 L15.325,11.275 L16.2,9.875 L9.45,9.875 L9.45,9.875 Z"
                      id="Path"></path>
                <path d="M7.875,13.025 C7.725,12.875 7.475,12.875 7.325,13.025 L5.35,15 L4.45,14.075 C4.3,13.925 4.05,13.925 3.9,14.075 L3.55,14.425 C3.425,14.55 3.4,14.775 3.525,14.925 L5.075,16.85 C5.225,17.025 5.5,17.025 5.65,16.85 L8.25,13.85 C8.375,13.7 8.375,13.475 8.225,13.325 L7.875,13.025 Z"
                      id="Path"></path>
                <path d="M9.225,14.8 L9.225,15.75 C9.225,15.875 9.325,15.975 9.45,15.975 L13.85,15.975 L13.7,14.575 L9.45,14.575 C9.325,14.575 9.225,14.675 9.225,14.8 Z"
                      id="Path"></path>
                <path d="M18.475,16.4 L18.475,17.85 C18.475,18.5 17.95,19.025 17.3,19.025 L2.75,19.025 C2.1,19.025 1.575,18.5 1.575,17.85 L1.575,2.65 C1.575,2 2.1,1.475 2.75,1.475 L17.3,1.475 C17.95,1.475 18.475,2 18.475,2.65 L18.475,6.25 L19.925,3.95 L19.925,2.625 C19.925,1.175 18.75,0 17.3,0 L2.75,0 C1.3,0 0.125,1.175 0.125,2.625 L0.125,17.825 C0.125,19.275 1.3,20.45 2.75,20.45 L17.3,20.45 C18.75,20.45 19.925,19.275 19.925,17.825 L19.925,14.075 L18.475,16.4 C18.5,16.375 18.5,16.4 18.475,16.4 Z"
                      id="Path"></path>
                <path d="M23.65,5.15 L21.825,4 C21.6,3.85 21.3,3.925 21.175,4.15 L20.45,5.25 L23.075,6.9 L23.775,5.775 C23.95,5.575 23.875,5.275 23.65,5.15 Z" id="Path"></path>
                <path d="M14.825,14.4 L15,16.15 C15.025,16.45 15.35,16.65 15.625,16.55 L17.275,15.95 C17.375,15.925 17.45,15.85 17.525,15.75 L18.025,14.95 L15.4,13.3 L14.9,14.1 C14.825,14.2 14.8,14.3 14.825,14.4 Z"
                      id="Path"></path>
                <polygon id="Path" points="16 12.35 18.625 14 22.5 7.875 19.85 6.225"></polygon>
            </g>
        </g>
    </g>
</svg>