<svg xmlns="http://www.w3.org/2000/svg" width="22" height="23" viewBox="0 0 22 23">
    <g fill="none" fill-rule="evenodd">
        <g fill="#000091" fill-rule="nonzero">
            <g>
                <path d="M1.42 0C.634 0 0 .644 0 1.438c0 .531.286.986.71 1.235v11.185c-.424.25-.71.704-.71 1.236 0 .794.635 1.437 1.42 1.437.524 0 .974-.29 1.22-.718h1.618c.256.003.494-.133.623-.357.13-.224.13-.5 0-.725-.129-.223-.367-.36-.623-.356H2.64c-.124-.217-.295-.39-.51-.517V2.673c.215-.126.386-.3.51-.517h11.044c.125.218.296.39.51.517V5.03c-.003.26.131.5.352.631.222.13.495.13.716 0 .221-.13.356-.372.352-.63v-2.36c.424-.248.71-.703.71-1.235 0-.793-.636-1.437-1.42-1.437-.525 0-.974.29-1.22.719H2.64C2.394.289 1.944 0 1.42 0zm5.677 6.469c-.784 0-1.42.643-1.42 1.437 0 .532.286.987.71 1.236v11.185c-.424.249-.71.704-.71 1.235 0 .794.636 1.438 1.42 1.438.525 0 .974-.29 1.22-.719H19.36c.245.43.695.719 1.22.719.784 0 1.419-.644 1.419-1.438 0-.531-.286-.986-.71-1.235V9.142c.424-.25.71-.704.71-1.236 0-.794-.635-1.437-1.42-1.437-.524 0-.974.29-1.22.718H8.318c-.246-.429-.695-.718-1.22-.718zm1.22 2.156H19.36c.124.217.295.39.51.517v11.185c-.215.126-.386.3-.51.517H8.317c-.125-.218-.296-.39-.51-.517V9.142c.214-.126.385-.3.51-.517z"
                      transform="translate(-77 -1203) translate(77 1203)"/>
            </g>
        </g>
    </g>
</svg>
