<svg xmlns="http://www.w3.org/2000/svg" width="21" height="26" viewBox="0 0 21 26">
    <g fill="none" fill-rule="evenodd">
        <g fill="#000091" fill-rule="nonzero" stroke="#FFF" stroke-width=".4">
            <g>
                <g>
                    <g>
                        <path d="M4.532.008C3.486.114 2.66.964 2.65 1.92v2.725h1.606V1.92c.048-.155.143-.193.276-.27h11.983c.152.038.19.125.266.27v20.212c-.047.126-.17.184-.256.242H4.532c-.152-.039-.21-.174-.276-.27V19.37H2.65v2.734c.095 1.063.96 1.885 1.882 1.904h11.993c1.017-.097 1.854-.957 1.863-1.875v-2.212h.808c.418 0 .799-.396.799-.821v-2.184c0-.425-.38-.812-.799-.812h-.808v-2.183h.808c.418 0 .799-.396.799-.821v-2.184c0-.425-.38-.812-.799-.812h-.808V7.921h.808c.418 0 .799-.387.799-.821V4.916c0-.425-.38-.812-.799-.812h-.808V1.921C18.293.858 17.447.027 16.515.008H4.532zM1.756 5.196c-.418.02-.78.425-.76.86.018.425.427.792.846.773h3.213c.428.01.818-.386.818-.821 0-.425-.39-.821-.818-.812H1.756zM2.65 7.37v3.276h1.606V7.37H2.65zm-.894 3.826c-.418.02-.78.425-.76.86.018.425.427.792.846.773h3.213c.428.01.818-.386.818-.821 0-.435-.39-.821-.818-.812H1.756h0zm.894 2.174v3.276h1.606V13.37H2.65zm-.894 3.817c-.418.029-.78.434-.76.87.018.424.427.791.846.772h3.213c.428 0 .818-.386.818-.821 0-.435-.39-.821-.818-.821H1.756h0z"
                              transform="translate(-76 -647) translate(76 647) translate(0 .638) translate(.005 .354)"/>
                    </g>
                </g>
            </g>
        </g>
    </g>
</svg>
