<svg xmlns="http://www.w3.org/2000/svg" width="22" height="22" viewBox="0 0 22 22">
    <g fill="none" fill-rule="evenodd">
        <g fill="#000091" fill-rule="nonzero">
            <g>
                <path d="M4.526 13V7.962H5.57v1.92h1.969v-1.92h1.045V13H7.538v-2.249h-1.97V13H4.527zm5.684-1.326c.04.212.113.375.223.49.109.115.268.173.478.173.242 0 .426-.085.552-.255.127-.17.19-.383.19-.64 0-.254-.06-.467-.178-.641-.118-.175-.303-.262-.554-.262-.118 0-.22.015-.307.044-.153.055-.268.157-.345.305l-.875-.041.348-2.738h2.731v.827h-2.027l-.177 1.084c.15-.098.267-.163.352-.195.14-.053.313-.079.516-.079.41 0 .768.138 1.073.414.305.275.458.676.458 1.203 0 .458-.147.867-.44 1.227-.295.36-.735.54-1.32.54-.472 0-.86-.127-1.162-.38-.303-.252-.472-.611-.506-1.076h.97zm6.108-2.11c0-.261-.069-.448-.206-.56-.138-.111-.331-.167-.58-.167h-.98v1.483h.98c.249 0 .442-.06.58-.18.137-.122.206-.313.206-.575zm1.043-.006c0 .595-.15 1.015-.451 1.261-.301.246-.73.37-1.289.37h-1.07V13h-1.046V7.962H15.7c.506 0 .909.13 1.21.39.3.26.45.662.45 1.206z"
                      transform="translate(-77 -403) translate(77 403)"/>
                <path d="M22 10.214v7.857C22 20.238 20.238 22 18.071 22H3.93C1.762 22 0 20.238 0 18.071V3.93C0 1.762 1.762 0 3.929 0h7.857c.434 0 .785.352.785.786 0 .434-.351.785-.785.785H3.929c-1.3 0-2.358 1.058-2.358 2.358V18.07c0 1.3 1.058 2.358 2.358 2.358H18.07c1.3 0 2.358-1.058 2.358-2.358v-7.857c0-.434.351-.785.785-.785.434 0 .786.351.786.785z"
                      transform="translate(-77 -403) translate(77 403)"/>
            </g>
        </g>
    </g>
</svg>
