<svg xmlns="http://www.w3.org/2000/svg" width="23" height="26" viewBox="0 0 23 26">
    <g fill="none" fill-rule="evenodd">
        <g fill="#000091" fill-rule="nonzero" stroke="#000091" stroke-width=".1">
            <g>
                <g transform="translate(-76 -1137) translate(77 1137) translate(0 1)">
                    <path d="M10.5 24c5.219 0 10.5-1.177 10.5-3.429V3.43C21 1.177 15.719 0 10.5 0S0 1.177 0 3.429V20.57C0 22.823 5.281 24 10.5 24zm0-22.857c6.15 0 9.365 1.488 9.365 2.286 0 .797-3.215 2.285-9.365 2.285S1.135 4.226 1.135 3.43c0-.798 3.215-2.286 9.365-2.286zM1.135 5.07C2.965 6.25 6.751 6.857 10.5 6.857c3.749 0 7.534-.608 9.365-1.786v4.072c0 .797-3.215 2.286-9.365 2.286S1.135 9.94 1.135 9.143V5.07zm0 5.715c1.83 1.177 5.616 1.785 9.365 1.785 3.749 0 7.534-.608 9.365-1.785v4.071c0 .797-3.215 2.286-9.365 2.286s-9.365-1.489-9.365-2.286v-4.071zm0 5.714c1.83 1.177 5.616 1.786 9.365 1.786 3.749 0 7.534-.609 9.365-1.786v4.071c0 .798-3.215 2.286-9.365 2.286s-9.365-1.488-9.365-2.286V16.5z"/>
                    <circle cx="16.743" cy="19.714" r="1"/>
                    <circle cx="16.743" cy="14" r="1"/>
                    <circle cx="16.743" cy="8.286" r="1"/>
                </g>
            </g>
        </g>
    </g>
</svg>
