<svg xmlns="http://www.w3.org/2000/svg" width="22" height="22" viewBox="0 0 22 22">
    <g fill="none" fill-rule="evenodd">
        <g fill="#000091" fill-rule="nonzero">
            <g>
                <g>
                    <path d="M22 10.214v7.857C22 20.238 20.238 22 18.071 22H3.93C1.762 22 0 20.238 0 18.071V3.93C0 1.762 1.762 0 3.929 0h7.857c.434 0 .785.352.785.786 0 .434-.351.785-.785.785H3.929c-1.3 0-2.358 1.058-2.358 2.358V18.07c0 1.3 1.058 2.358 2.358 2.358H18.07c1.3 0 2.358-1.058 2.358-2.358v-7.857c0-.434.351-.785.785-.785.434 0 .786.351.786.785zM5.73 11.23l11-11c.307-.307.804-.307 1.111 0L21.77 4.16c.307.307.307.804 0 1.11l-11 11c-.147.148-.348.231-.556.231H6.286c-.434 0-.786-.352-.786-.786v-3.928c0-.208.083-.409.23-.556zm10.31-8.087l2.817 2.817 1.246-1.246-2.817-2.817-1.246 1.246zM7.07 14.929H9.89l7.857-7.858-2.817-2.817L7.07 12.11v2.818z"
                          transform="translate(-77 -1090) translate(77 1089) translate(0 1)"/>
                </g>
            </g>
        </g>
    </g>
</svg>
