<svg xmlns="http://www.w3.org/2000/svg" width="24" height="24" viewBox="0 0 24 24">
    <g fill="none" fill-rule="evenodd">
        <g fill="#000091" fill-rule="nonzero" stroke="#FFF" stroke-width=".4">
            <g>
                <g>
                    <g>
                        <path d="M8.462 1.17c-1.2-1.194-3.139-1.194-4.339 0L1.2 4.091c-1.193 1.2-1.193 3.139 0 4.339l4.185 4.246c1.2 1.193 3.138 1.193 4.338 0l.154-.154L8.615 11.2l-.153.154c-.232.235-.548.367-.877.367-.33 0-.646-.132-.877-.367L2.492 7.169c-.235-.231-.367-.547-.367-.877 0-.33.132-.645.367-.877l2.923-2.923c.232-.235.548-.367.877-.367.33 0 .646.132.877.367l4.216 4.216c.235.231.367.547.367.877 0 .33-.132.645-.367.877l-.154.153 1.292 1.293.154-.154c1.193-1.2 1.193-3.139 0-4.339L8.462 1.17zM22.83 15.538l-4.215-4.215c-1.2-1.193-3.138-1.193-4.338 0l-.154.154 1.262 1.323.153-.154c.232-.235.548-.367.877-.367.33 0 .646.132.877.367l4.216 4.185c.235.231.367.547.367.877 0 .33-.132.645-.367.877l-2.923 2.923c-.232.235-.548.367-.877.367-.33 0-.646-.132-.877-.367l-4.216-4.216c-.235-.231-.367-.547-.367-.877 0-.33.132-.645.367-.877l.154-.153-1.292-1.293-.154.154c-1.193 1.2-1.193 3.139 0 4.339l4.215 4.246c1.2 1.193 3.139 1.193 4.339 0l2.923-2.923c.587-.574.92-1.358.926-2.179.005-.82-.317-1.609-.895-2.19h0z"
                              transform="translate(-76 -1039) translate(76 1039)"/>
                        <path d="M6.892 6.892c-.352.36-.352.934 0 1.293l8.893 8.923c.367.275.881.239 1.206-.086.325-.325.362-.84.086-1.207L8.215 6.892c-.173-.178-.412-.279-.661-.279-.25 0-.488.1-.662.28z"
                              transform="translate(-76 -1039) translate(76 1039)"/>
                    </g>
                </g>
            </g>
        </g>
    </g>
</svg>
