<svg xmlns="http://www.w3.org/2000/svg" width="19" height="24" viewBox="0 0 19 24">
    <g fill="none" fill-rule="evenodd">
        <g fill="#000091" fill-rule="nonzero" stroke="#FFF" stroke-width=".3">
            <g>
                <g>
                    <path d="M16.262.115H.738c-.402 0-.716.32-.716.733v20.304c0 .413.314.733.716.733h15.524c.402 0 .716-.32.716-.733V.848c0-.413-.314-.733-.716-.733zm-.716 20.304H1.454V1.58h14.092V20.42z"
                          transform="translate(-77 -596) translate(78 597)"/>
                    <path d="M4.362 14.644h8.299c.402 0 .715-.321.715-.734 0-.412-.313-.733-.715-.733h-8.3c-.402 0-.715.32-.715.733s.313.734.716.734zM4.362 17.92h8.299c.402 0 .715-.32.715-.733 0-.412-.313-.733-.715-.733h-8.3c-.402 0-.715.321-.715.733-.022.413.313.734.716.734zM6.621 6.485h.649c.223 0 .38-.183.38-.39V6.05c0-.069.022-.665.895-.665.492 0 .805.115.805.71 0 .345-.514.78-.783 1.01-.47.389-.85.778-.85 1.58v.138c0 .23.18.39.38.39h.65c.223 0 .38-.184.38-.39v-.138c0-.16 0-.183.335-.458.447-.39 1.297-1.1 1.297-2.131 0-1.031-.581-2.154-2.214-2.154-1.678 0-2.304 1.306-2.304 2.13v.047c0 .206.156.366.38.366zM8.813 9.9H8.03c-.223 0-.38.183-.38.39v.687c0 .23.179.39.38.39h.783c.224 0 .38-.184.38-.39v-.687c.023-.207-.156-.39-.38-.39z"
                          transform="translate(-77 -596) translate(78 597)"/>
                </g>
            </g>
        </g>
    </g>
</svg>
