<svg xmlns="http://www.w3.org/2000/svg" width="24" height="24" viewBox="0 0 24 24">
    <g fill="none" fill-rule="evenodd">
        <g fill="#000091" fill-rule="nonzero">
            <g>
                <g>
                    <path d="M21.307 4.427l-.64-.72C18.48 1.44 15.413 0 12 0 8.587 0 5.52 1.44 3.333 3.707l-.64.72C1.013 6.507 0 9.147 0 12c0 2.853 1.013 5.493 2.693 7.573l.64.72C5.52 22.56 8.587 24 12 24c3.413 0 6.48-1.44 8.667-3.707l.64-.72C22.987 17.493 24 14.853 24 12c0-2.853-1.013-5.493-2.693-7.573zm-1.467-.24c-.8.373-1.707.72-2.693.96-.587-1.627-1.36-2.934-2.267-3.84 1.893.506 3.6 1.52 4.96 2.88zM17.307 12c0 2.08-.294 4.053-.8 5.76-1.387-.293-2.907-.453-4.507-.453-1.6 0-3.12.16-4.507.453-.506-1.68-.8-3.653-.8-5.76 0-2.08.294-4.053.8-5.76 1.387.293 2.907.453 4.507.453 1.6 0 3.12-.16 4.507-.453.506 1.707.8 3.68.8 5.76zm-1.094-6.64c-1.306.267-2.72.427-4.213.427-1.493 0-2.907-.16-4.213-.427C8.773 2.693 10.293.933 12 .933c1.707 0 3.227 1.76 4.213 4.427zM9.147 1.307c-.934.906-1.707 2.213-2.267 3.84-.987-.267-1.893-.587-2.693-.96 1.333-1.36 3.04-2.374 4.96-2.88zM.933 12c0-2.693.96-5.173 2.587-7.093.88.453 1.92.853 3.067 1.146-.507 1.76-.8 3.787-.8 5.974 0 2.186.293 4.213.8 5.973-1.147.293-2.187.667-3.067 1.147C1.893 17.173.933 14.693.933 12zm3.227 7.813c.8-.373 1.707-.72 2.693-.96.587 1.627 1.36 2.934 2.267 3.84-1.893-.506-3.6-1.52-4.96-2.88zm3.627-1.173c1.306-.267 2.72-.427 4.213-.427 1.493 0 2.907.16 4.213.427-.986 2.667-2.506 4.427-4.213 4.427-1.707 0-3.227-1.76-4.213-4.427zm7.066 4.053c.934-.906 1.707-2.213 2.267-3.84.987.267 1.893.587 2.693.96-1.333 1.36-3.04 2.374-4.96 2.88zm5.654-3.6c-.88-.453-1.92-.853-3.067-1.146.507-1.76.8-3.787.8-5.974 0-2.186-.293-4.213-.8-5.973 1.147-.293 2.187-.667 3.067-1.147 1.6 1.92 2.586 4.4 2.586 7.094 0 2.693-.986 5.226-2.586 7.146z"
                          transform="translate(-75 -696) translate(75 696)"/>
                    <path d="M12.507 14.96h.72c.32 0 .666.08.666.48 0 .427-.373.48-.666.48h-2.454c-.293 0-.666-.053-.666-.48s.346-.48.666-.48h.774v-3.493h-.774c-.293 0-.666-.054-.666-.48 0-.427.346-.48.666-.48h1.014c.56 0 .72.106.72.666v3.787zM11.04 8.533c0-.346.187-.453.453-.453h.56c.267 0 .454.107.454.453v.454c0 .346-.187.453-.454.453h-.56c-.266 0-.453-.107-.453-.453v-.454z"
                          transform="translate(-75 -696) translate(75 696)"/>
                </g>
            </g>
        </g>
    </g>
</svg>
