<?xml version="1.0" encoding="UTF-8"?>
<svg width="22px" height="22px" viewBox="0 0 22 22" version="1.1" xmlns="http://www.w3.org/2000/svg" xmlns:xlink="http://www.w3.org/1999/xlink">
    <title>Label</title>
    <g id="MENTOR" stroke="none" stroke-width="1" fill="none" fill-rule="evenodd">
        <g id="Mentor---FC---Thématique" transform="translate(-37.000000, -272.000000)" fill="#000091" fill-rule="nonzero">
            <g id="Label" transform="translate(37.000000, 272.000000)">
                <path d="M21.8625,2.86458333 C21.8625,1.375 20.625,0.1375 19.1354167,0.1375 L13.6354167,0.114583333 C13.6354167,0.114583333 13.6354167,0.114583333 13.6125,0.114583333 C12.8791667,0.114583333 12.1916667,0.4125 11.6645833,0.916666667 L0.916666667,11.6875 C-0.160416667,12.7645833 -0.160416667,14.50625 0.916666667,15.5833333 L6.43958333,21.0833333 C6.96666667,21.6104167 7.65416667,21.8854167 8.3875,21.8854167 C9.12083333,21.8854167 9.80833333,21.6104167 10.3354167,21.0833333 L21.10625,10.3125 C21.6104167,9.80833333 21.9083333,9.075 21.9083333,8.36458333 L21.8625,2.86458333 Z M20.075,9.30416667 L9.30416667,20.075 C8.8,20.5791667 7.92916667,20.5791667 7.425,20.075 C7.425,20.075 7.425,20.075 7.425,20.075 L1.925,14.5520833 C1.39791667,14.025 1.39791667,13.2 1.925,12.6729167 L12.6958333,1.90208333 C12.9479167,1.65 13.2916667,1.5125 13.6354167,1.5125 C13.6354167,1.5125 13.6354167,1.5125 13.6354167,1.5125 L19.1354167,1.53541667 C19.86875,1.53541667 20.4416667,2.13125 20.4416667,2.84166667 L20.4645833,8.34166667 C20.4645833,8.73125 20.3270833,9.075 20.075,9.30416667 Z"
                      id="Shape"></path>
                <path d="M16.5229167,3.09375 C15.19375,3.09375 14.1395833,4.17083333 14.1395833,5.47708333 C14.1395833,6.78333333 15.2166667,7.86041667 16.5229167,7.86041667 C17.8291667,7.86041667 18.90625,6.78333333 18.90625,5.47708333 C18.90625,4.17083333 17.8291667,3.09375 16.5229167,3.09375 Z M16.5229167,6.4625 C15.9958333,6.4625 15.5604167,6.02708333 15.5604167,5.5 C15.5604167,4.97291667 15.9958333,4.5375 16.5229167,4.5375 C17.05,4.5375 17.4854167,4.97291667 17.4854167,5.5 C17.4854167,6.02708333 17.05,6.4625 16.5229167,6.4625 Z"
                      id="Shape"></path>
                <path d="M11.75625,6.41666667 C11.48125,6.14166667 11.0229167,6.14166667 10.7479167,6.41666667 C10.4729167,6.69166667 10.4729167,7.15 10.7479167,7.425 L14.575,11.2520833 C14.7125,11.3895833 14.8958333,11.4583333 15.0791667,11.4583333 C15.2625,11.4583333 15.4458333,11.3895833 15.5833333,11.2520833 C15.8583333,10.9770833 15.8583333,10.51875 15.5833333,10.24375 L11.75625,6.41666667 Z"
                      id="Path"></path>
                <path d="M9.53333333,8.61666667 C9.25833333,8.34166667 8.8,8.34166667 8.525,8.61666667 C8.25,8.89166667 8.25,9.35 8.525,9.625 L12.375,13.475 C12.5125,13.6125 12.6958333,13.68125 12.8791667,13.68125 C13.0625,13.68125 13.2458333,13.6125 13.3833333,13.475 C13.6583333,13.2 13.6583333,12.7416667 13.3833333,12.4666667 L9.53333333,8.61666667 Z"
                      id="Path"></path>
                <path d="M7.31041667,10.8395833 C7.03541667,10.5645833 6.57708333,10.5645833 6.30208333,10.8395833 C6.02708333,11.1145833 6.02708333,11.5729167 6.30208333,11.8479167 L10.1291667,15.675 C10.2666667,15.8125 10.45,15.88125 10.6333333,15.88125 C10.8166667,15.88125 11,15.8125 11.1375,15.675 C11.4125,15.4 11.4125,14.9416667 11.1375,14.6666667 L7.31041667,10.8395833 Z"
                      id="Path"></path>
                <path d="M5.0875,13.0625 C4.8125,12.7875 4.35416667,12.7875 4.07916667,13.0625 C3.80416667,13.3375 3.80416667,13.7958333 4.07916667,14.0708333 L7.90625,17.8979167 C8.04375,18.0354167 8.22708333,18.1041667 8.41041667,18.1041667 C8.59375,18.1041667 8.77708333,18.0354167 8.91458333,17.8979167 C9.18958333,17.6229167 9.18958333,17.1645833 8.91458333,16.8895833 L5.0875,13.0625 Z"
                      id="Path"></path>
            </g>
        </g>
    </g>
</svg>