<svg xmlns="http://www.w3.org/2000/svg" width="22" height="22" viewBox="0 0 22 22">
    <g fill="none" fill-rule="evenodd">
        <g fill="#000091" fill-rule="nonzero" stroke="#FFF" stroke-width=".4">
            <g>
                <path d="M17.378 0H2.622C1.184 0 0 1.184 0 2.622v10.232c0 1.438 1.184 2.622 2.622 2.622h1.606c-.084.74-.232 1.649-.486 2.452-.211.677.021 1.374.57 1.797.297.233.635.338.995.338.317 0 .634-.084.909-.274 2.05-1.353 3.742-3.193 4.693-4.313h6.47c1.437 0 2.621-1.184 2.621-2.622V2.622C20 1.184 18.816 0 17.378 0zm.91 12.854c0 .508-.423.93-.93.93h-6.85c-.254 0-.508.127-.656.317-.803.994-2.431 2.833-4.44 4.187.38-1.269.529-2.643.592-3.616.021-.232-.063-.465-.232-.634-.17-.17-.38-.275-.613-.275H2.622c-.508 0-.93-.423-.93-.93V2.622c0-.508.422-.93.93-.93h14.756c.508 0 .93.422.93.93v10.232h-.02z"
                      transform="translate(-76 -519) translate(77 520)"/>
                <path d="M13.763 3.827c-1.818 0-2.473 1.374-2.473 2.24v.064c0 .233.19.423.422.423h.698c.233 0 .423-.19.423-.423v-.063c0-.064.021-.698.951-.698.508 0 .867.127.867.74 0 .36-.55.824-.846 1.057-.507.402-.909.825-.909 1.67v.148c0 .233.19.423.423.423h.698c.232 0 .423-.19.423-.423v-.148c0-.148 0-.19.36-.486.485-.402 1.395-1.142 1.395-2.241-.043-1.12-.677-2.283-2.432-2.283zM14.06 10.085h-.846c-.233 0-.423.19-.423.422v.72c0 .232.19.422.423.422h.845c.233 0 .423-.19.423-.423v-.719c-.021-.232-.211-.422-.423-.422zM9.662 3.827H4.27c-.233 0-.423.19-.423.422v.72c0 .232.19.422.423.422h5.39c.233 0 .424-.19.424-.423V4.25c0-.232-.19-.422-.423-.422zM9.662 6.956H4.27c-.233 0-.423.19-.423.422v.72c0 .232.19.422.423.422h5.39c.233 0 .424-.19.424-.423v-.719c0-.232-.19-.422-.423-.422zM9.662 10.085H4.27c-.233 0-.423.19-.423.422v.72c0 .232.19.422.423.422h5.39c.233 0 .424-.19.424-.423v-.719c0-.232-.19-.422-.423-.422z"
                      transform="translate(-76 -519) translate(77 520)"/>
            </g>
        </g>
    </g>
</svg>
