<?xml version="1.0" encoding="UTF-8"?>
<svg width="24px" height="19px" viewBox="0 0 24 19" version="1.1" xmlns="http://www.w3.org/2000/svg" xmlns:xlink="http://www.w3.org/1999/xlink">
    <title>Forum</title>
    <g id="MENTOR" stroke="none" stroke-width="1" fill="none" fill-rule="evenodd">
        <g id="Mentor---FC---Thématique" transform="translate(-34.000000, -303.000000)" fill="#000091" fill-rule="nonzero">
            <path d="M37.6923077,307.290315 C37.6923077,306.951818 37.9678248,306.677413 38.3076923,306.677413 L46.9230769,306.677413 C47.2629445,306.677413 47.5384615,306.951818 47.5384615,307.290315 C47.5384615,307.628811 47.2629445,307.903217 46.9230769,307.903217 L38.3076923,307.903217 C37.9678248,307.903217 37.6923077,307.628811 37.6923077,307.290315 Z M47.5384615,310.354825 C47.5384615,310.016329 47.2629445,309.741923 46.9230769,309.741923 L38.3076923,309.741923 C37.9678248,309.741923 37.6923077,310.016329 37.6923077,310.354825 C37.6923077,310.693322 37.9678248,310.967727 38.3076923,310.967727 L46.9230769,310.967727 C47.2629445,310.967727 47.5384615,310.693322 47.5384615,310.354825 Z M58,310.354825 L58,317.096748 C57.9988808,318.111776 57.1729848,318.93434 56.1538462,318.935455 L55.5384615,318.935455 L55.5384615,321.387063 C55.538329,321.624879 55.4001611,321.841179 55.1839344,321.942069 C54.9677077,322.04296 54.7124098,322.010251 54.5288615,321.85814 L51.0078154,318.935455 L45.0769231,318.935455 C44.0577844,318.93434 43.2318884,318.111776 43.2307692,317.096748 L43.2307692,315.258042 L41.0523077,315.258042 L37.5438769,319.333841 C37.3762942,319.52829 37.1049387,319.598375 36.8635969,319.509542 C36.6222551,319.420709 36.4618788,319.191713 36.4615385,318.935455 L36.4615385,315.258042 L35.8461538,315.258042 C34.8270152,315.256927 34.0011192,314.434363 34,313.419336 L34,304.838706 C34.0011192,303.823679 34.8270152,303.001115 35.8461538,303 L49.3846154,303 C50.403754,303.001115 51.22965,303.823679 51.2307692,304.838706 L51.2307692,308.516119 L56.1538462,308.516119 C57.1729848,308.517234 57.9988808,309.339798 58,310.354825 Z M49.3846154,314.032238 C49.7243985,314.032035 49.9997963,313.757748 50,313.419336 L50,304.838706 C49.9997963,304.500294 49.7243985,304.226007 49.3846154,304.225804 L35.8461538,304.225804 C35.5063707,304.226007 35.2309729,304.500294 35.2307692,304.838706 L35.2307692,313.419336 C35.2309729,313.757748 35.5063707,314.032035 35.8461538,314.032238 L37.0769231,314.032238 C37.4167906,314.032238 37.6923077,314.306644 37.6923077,314.64514 L37.6923077,317.278719 L40.3022769,314.246754 C40.4189521,314.110692 40.5895755,314.032309 40.7692308,314.032238 L49.3846154,314.032238 Z M56.7692308,310.354825 C56.7690271,310.016413 56.4936293,309.742126 56.1538462,309.741923 L51.2307692,309.741923 L51.2307692,313.419336 C51.22965,314.434363 50.403754,315.256927 49.3846154,315.258042 L44.4615385,315.258042 L44.4615385,317.096748 C44.4617421,317.435161 44.7371399,317.709448 45.0769231,317.709651 L51.2307692,317.709651 C51.3747726,317.709619 51.5142437,317.759796 51.6249846,317.851476 L54.3076923,320.07864 L54.3076923,318.322553 C54.3076923,317.984056 54.5832094,317.709651 54.9230769,317.709651 L56.1538462,317.709651 C56.4936293,317.709448 56.7690271,317.435161 56.7692308,317.096748 L56.7692308,310.354825 Z"
                  id="Forum"></path>
        </g>
    </g>
</svg>