<svg xmlns="http://www.w3.org/2000/svg" width="21" height="26" viewBox="0 0 21 26">
    <g fill="none" fill-rule="evenodd">
        <g fill="#000091" fill-rule="nonzero" stroke="#FFF" stroke-width=".3">
            <g>
                <path d="M14.698 0H1.338C.602 0 .003.59 0 1.317v21.366c.002.727.599 1.315 1.336 1.317h13.36c2.375-.002 4.3-1.899 4.304-4.241V4.247C19 1.904 17.075.003 14.698 0zM1.484 1.463h2.079v21.074H1.483V1.463zM17.516 19.76c0 1.534-1.262 2.778-2.818 2.778H5.047V1.463h9.651c1.556 0 2.818 1.244 2.818 2.778v15.518z"
                      transform="translate(-77 -793) translate(78 794)"/>
            </g>
        </g>
    </g>
</svg>
