<svg xmlns="http://www.w3.org/2000/svg" width="17" height="26" viewBox="0 0 17 26">
    <g fill="none" fill-rule="evenodd">
        <g fill="#000091" fill-rule="nonzero">
            <g>
                <g>
                    <g>
                        <path d="M12.75 20.583c-1.76 0-3.188-1.455-3.188-3.25s1.428-3.25 3.188-3.25c1.76 0 3.188 1.455 3.188 3.25-.002 1.795-1.428 3.249-3.188 3.25zm0-5.416c-1.174 0-2.125.97-2.125 2.166 0 1.197.951 2.167 2.125 2.167s2.125-.97 2.125-2.167c0-1.196-.951-2.166-2.125-2.166z"
                              transform="translate(-79 -843) translate(79 843)"/>
                        <path d="M16.469 26H9.03c-.293 0-.531-.243-.531-.542v-3.25c.002-1.495 1.19-2.706 2.656-2.708h3.188c1.466.002 2.654 1.213 2.656 2.708v3.25c0 .144-.056.282-.156.383-.1.102-.234.159-.375.159zm-6.907-1.083h6.376v-2.709c0-.897-.714-1.625-1.594-1.625h-3.188c-.88 0-1.594.728-1.594 1.625v2.709zM4.25 17.875c-1.76 0-3.188-1.455-3.188-3.25s1.428-3.25 3.188-3.25c1.76 0 3.188 1.455 3.188 3.25-.002 1.794-1.428 3.248-3.188 3.25zm0-5.417c-1.174 0-2.125.97-2.125 2.167 0 1.197.951 2.167 2.125 2.167s2.125-.97 2.125-2.167c0-1.197-.951-2.167-2.125-2.167z"
                              transform="translate(-79 -843) translate(79 843)"/>
                        <path d="M7.438 23.292H.53c-.293 0-.531-.243-.531-.542V19.5c.002-1.495 1.19-2.707 2.656-2.708h3.188c1.466.001 2.654 1.213 2.656 2.708H7.437c0-.897-.713-1.625-1.593-1.625H2.656c-.88 0-1.594.728-1.594 1.625v2.708h6.375v1.084zM10.094 13c-.141 0-.276-.057-.376-.159L6.686 9.75H1.594C.714 9.75 0 9.022 0 8.125v-6.5C0 .728.714 0 1.594 0H13.28c.88 0 1.594.728 1.594 1.625v6.5c0 .897-.714 1.625-1.594 1.625h-2.656v2.708c0 .22-.13.417-.328.5-.064.028-.133.042-.203.042zm-8.5-11.917c-.294 0-.532.243-.532.542v6.5c0 .3.238.542.532.542h5.312c.141 0 .276.057.376.158l2.28 2.326V9.208c0-.299.238-.541.532-.541h3.187c.294 0 .531-.243.531-.542v-6.5c0-.3-.237-.542-.53-.542H1.593z"
                              transform="translate(-79 -843) translate(79 843)"/>
                        <path d="M3.719 6.5c-.88 0-1.594-.728-1.594-1.625S2.839 3.25 3.719 3.25c.88 0 1.594.728 1.594 1.625 0 .431-.168.844-.467 1.149-.3.305-.705.476-1.127.476zm0-2.167c-.294 0-.531.243-.531.542 0 .3.237.542.53.542.294 0 .532-.243.532-.542 0-.3-.238-.542-.531-.542zM7.438 6.5c-.88 0-1.594-.728-1.594-1.625S6.557 3.25 7.437 3.25s1.594.728 1.594 1.625c0 .431-.168.844-.467 1.149-.298.305-.704.476-1.127.476zm0-2.167c-.294 0-.532.243-.532.542 0 .3.238.542.532.542.293 0 .53-.243.53-.542 0-.3-.237-.542-.53-.542zM11.156 6.5c-.88 0-1.594-.728-1.594-1.625s.714-1.625 1.594-1.625c.88 0 1.594.728 1.594 1.625 0 .431-.168.844-.467 1.149-.299.305-.704.476-1.127.476zm0-2.167c-.293 0-.531.243-.531.542 0 .3.238.542.531.542.294 0 .531-.243.531-.542 0-.3-.237-.542-.53-.542z"
                              transform="translate(-79 -843) translate(79 843)"/>
                    </g>
                </g>
            </g>
        </g>
    </g>
</svg>
