<svg xmlns="http://www.w3.org/2000/svg" width="22" height="21" viewBox="0 0 22 21">
    <g fill="none" fill-rule="evenodd">
        <g fill="#000091" fill-rule="nonzero">
            <g>
                <g>
                    <path d="M21.093 7.402l-.756-.74c-.629-.614-1.647-.614-2.276 0l-1.963 1.922V.525c-.001-.29-.241-.524-.537-.525H.537C.24 0 0 .235 0 .525v19.95c0 .29.24.524.537.525H15.56c.296 0 .536-.235.537-.525v-5.954l3.858-3.78 1.137-1.112c.628-.615.628-1.612 0-2.226zM15.024 19.95H1.074V1.05h13.95v8.584l-4.54 4.436c-.032.03-.06.063-.085.1-.024.033-.042.07-.054.11-.005.005-.005.005-.005.01l-1.138 3.34c-.062.19-.012.397.13.54.1.098.238.153.38.152.058 0 .116-.01.172-.026l3.413-1.113c.005 0 .005 0 .01-.005.04-.011.079-.029.113-.053.037-.023.072-.051.102-.084l1.502-1.47v4.379zm-3.938-4.52l1.046 1.023-1.572.515.526-1.538zm4.105-1.507l-.016.016-2.05 2-1.513-1.48 4.33-4.242L17.3 8.887l1.518 1.486-3.627 3.549zm5.146-5.035l-.757.74-1.519-1.485.757-.74c.211-.205.551-.205.762 0l.757.74c.209.206.209.539 0 .745z"
                          transform="translate(-75 -355) translate(75 354) translate(0 1)"/>
                    <path d="M12.878 4.2H3.22c-.297 0-.537-.235-.537-.525 0-.29.24-.525.537-.525h9.658c.296 0 .537.235.537.525 0 .29-.24.525-.537.525zM12.878 6.3H3.22c-.297 0-.537-.235-.537-.525 0-.29.24-.525.537-.525h9.658c.296 0 .537.235.537.525 0 .29-.24.525-.537.525zM8.585 8.4H3.22c-.297 0-.537-.235-.537-.525 0-.29.24-.525.537-.525h5.365c.297 0 .537.235.537.525 0 .29-.24.525-.537.525z"
                          transform="translate(-75 -355) translate(75 354) translate(0 1)"/>
                </g>
            </g>
        </g>
    </g>
</svg>
