<svg xmlns="http://www.w3.org/2000/svg" width="14" height="14" viewBox="0 0 14 14">
    <g fill="none" fill-rule="evenodd">
        <g fill="#000091" fill-rule="nonzero">
            <g>
                <g>
                    <path d="M12.569 27.205h-.794v-.553c0-.36-.297-.652-.663-.652-.366 0-.663.292-.663.652v.553H5.551v-.553c0-.36-.297-.652-.663-.652-.366 0-.663.292-.663.652v.553H3.43C2.09 27.205 1 28.275 1 29.597v8.011C1 38.929 2.089 40 3.431 40h9.138C13.91 40 15 38.929 15 37.608v-8.011c0-1.321-1.089-2.392-2.431-2.392zm-9.135 1.304h.793v.988c0 .36.297.652.663.652.366 0 .663-.292.663-.652v-.988h4.896v.988c0 .36.297.652.663.652.366 0 .663-.292.663-.652v-.988h.794c.61 0 1.105.487 1.105 1.088v1.979H2.326v-1.98c0-.288.117-.564.324-.768.207-.204.488-.319.781-.319h.003zm9.135 10.186H3.43c-.61 0-1.105-.487-1.105-1.087V32.88h11.348v4.728c0 .6-.495 1.087-1.105 1.087z"
                          transform="translate(-994 -302) translate(973 146) translate(20 130)"/>
                </g>
            </g>
        </g>
    </g>
</svg>
