<svg xmlns="http://www.w3.org/2000/svg" width="20" height="20" viewBox="0 0 20 20">
    <g fill="none" fill-rule="evenodd">
        <g fill="#000091">
            <g>
                <g>
                    <g>
                        <path d="M1.752 14.762c-.402-.696-.715-1.44-.931-2.215.958-.488 1.561-1.471 1.562-2.546 0-1.075-.603-2.059-1.56-2.547.43-1.556 1.25-2.978 2.382-4.13.901.586 2.055.616 2.986.079.93-.538 1.481-1.552 1.424-2.626C9.18.373 10.82.374 12.384.78c-.057 1.073.494 2.088 1.425 2.625.931.537 2.085.506 2.986-.08.552.562 1.041 1.2 1.453 1.914.412.713.72 1.457.931 2.215-.958.488-1.561 1.471-1.562 2.546 0 1.075.603 2.059 1.56 2.547-.43 1.556-1.25 2.978-2.382 4.13-.901-.586-2.055-.616-2.986-.079-.93.538-1.481 1.552-1.424 2.626-1.564.404-3.205.403-4.769-.002.057-1.073-.494-2.088-1.425-2.625-.931-.537-2.085-.506-2.986.08-.563-.574-1.051-1.217-1.453-1.914zm5.39.187c1.016.585 1.779 1.524 2.144 2.638.475.044.952.045 1.427 0 .365-1.113 1.129-2.052 2.144-2.637 1.015-.587 2.21-.78 3.357-.539.276-.388.515-.802.713-1.236-.782-.873-1.214-2.003-1.213-3.175 0-1.2.448-2.321 1.213-3.175-.2-.433-.439-.847-.715-1.236-1.146.24-2.34.049-3.355-.538-1.015-.585-1.778-1.524-2.143-2.638-.475-.044-.952-.045-1.427 0-.365 1.113-1.129 2.052-2.144 2.637-1.015.587-2.21.78-3.357.539-.276.388-.514.802-.713 1.236.782.873 1.214 2.003 1.213 3.175 0 1.2-.448 2.321-1.213 3.175.2.433.439.847.715 1.236 1.146-.24 2.34-.049 3.355.538zM10 12.857c-1.578 0-2.857-1.279-2.857-2.857 0-1.578 1.279-2.857 2.857-2.857 1.578 0 2.857 1.279 2.857 2.857 0 1.578-1.279 2.857-2.857 2.857zm0-1.905c.526 0 .952-.426.952-.952s-.426-.952-.952-.952-.952.426-.952.952.426.952.952.952z"
                              transform="translate(-881 -926) translate(58 911) translate(734 15) translate(89)"/>
                    </g>
                </g>
            </g>
        </g>
    </g>
</svg>
