<svg xmlns="http://www.w3.org/2000/svg" width="17" height="22" viewBox="0 0 17 22">
    <g fill="none" fill-rule="evenodd">
        <g fill="#000091" fill-rule="nonzero" stroke="#000091" stroke-width=".4">
            <g>
                <path d="M15.489 5.357c0-.12-.06-.227-.149-.291L10.452.105c-.03-.031-.066-.053-.103-.07-.01-.005-.021-.008-.032-.012-.03-.01-.06-.017-.093-.019-.007 0-.013-.004-.02-.004H1.056C.474 0 0 .48 0 1.071V18.93C0 19.519.474 20 1.056 20h13.37c.582 0 1.055-.48 1.055-1.071V5.393c.002-.013.008-.023.008-.036zM14.28 5h-3.373c-.193 0-.351-.16-.351-.357V1.219L14.28 5zm.146 14.286H1.056c-.194 0-.352-.16-.352-.357V1.07c0-.196.158-.357.352-.357h8.796v3.929c0 .59.473 1.071 1.055 1.071h3.87V18.93c0 .196-.157.357-.351.357z"
                      transform="translate(-74 -516) translate(75 517)"/>
                <path d="M2.463 4.286h4.926c.194 0 .352-.16.352-.357 0-.198-.158-.358-.352-.358H2.463c-.194 0-.352.16-.352.358 0 .197.158.357.352.357zM13.019 7.143H2.463c-.194 0-.352.16-.352.357 0 .197.158.357.352.357h10.556c.194 0 .351-.16.351-.357 0-.197-.157-.357-.351-.357zM13.019 10.714H2.463c-.194 0-.352.16-.352.357 0 .198.158.358.352.358h10.556c.194 0 .351-.16.351-.358 0-.197-.157-.357-.351-.357z"
                      transform="translate(-74 -516) translate(75 517)"/>
            </g>
        </g>
    </g>
</svg>
