<svg xmlns="http://www.w3.org/2000/svg" width="20" height="20" viewBox="0 0 20 20">
    <g fill="none" fill-rule="evenodd">
        <g fill="#000091">
            <g>
                <g>
                    <g>
                        <path d="M10 20C4.477 20 0 15.523 0 10S4.477 0 10 0s10 4.477 10 10-4.477 10-10 10zm0-2c4.418 0 8-3.582 8-8s-3.582-8-8-8-8 3.582-8 8 3.582 8 8 8zm-1-5h2v2H9v-2zm2-1.645V12H9v-1.5c0-.552.448-1 1-1 .79 0 1.445-.613 1.497-1.401.052-.789-.517-1.482-1.3-1.586-.784-.104-1.513.418-1.668 1.193l-1.962-.393c.336-1.682 1.842-2.872 3.556-2.812 1.714.06 3.132 1.353 3.35 3.054.217 1.702-.83 3.31-2.473 3.8z"
                              transform="translate(-886 -249) translate(758 246) translate(128 3)"/>
                    </g>
                </g>
            </g>
        </g>
    </g>
</svg>
