<svg xmlns="http://www.w3.org/2000/svg" width="21" height="21" viewBox="0 0 21 21">
    <g fill="none" fill-rule="evenodd">
        <g fill="#000091" fill-rule="nonzero" stroke="#000091" stroke-width=".2">
            <g>
                <g>
                    <path d="M6.797.746c-1-.995-2.615-.995-3.615 0L.746 3.182c-.995 1-.995 2.615 0 3.615l3.487 3.538c1 .995 2.615.995 3.615 0l.128-.128-1.05-1.102-.13.128c-.192.196-.455.306-.73.306-.275 0-.538-.11-.73-.306L1.822 5.746c-.196-.193-.306-.456-.306-.731 0-.275.11-.538.306-.73l2.435-2.437c.193-.196.456-.306.731-.306.275 0 .538.11.731.306l3.513 3.513c.196.193.306.456.306.73 0 .276-.11.539-.306.732l-.128.128 1.077 1.077.128-.129c.994-1 .994-2.615 0-3.615L6.797.746zM18.771 12.72l-3.513-3.513c-1-.994-2.615-.994-3.615 0l-.128.128 1.051 1.103.128-.128c.193-.196.456-.306.731-.306.275 0 .538.11.73.306l3.514 3.487c.195.193.306.456.306.73 0 .275-.11.539-.306.731l-2.436 2.436c-.193.196-.456.306-.731.306-.275 0-.538-.11-.73-.306l-3.514-3.512c-.195-.193-.306-.457-.306-.731 0-.275.11-.538.306-.731l.129-.128-1.077-1.077-.128.128c-.995 1-.995 2.615 0 3.615l3.512 3.539c1 .994 2.616.994 3.616 0l2.436-2.436c.488-.478.766-1.131.771-1.815.005-.684-.264-1.341-.746-1.826h0z"
                          transform="translate(-791 -616) translate(58 602) translate(734 15)"/>
                    <path d="M5.49 5.515c-.294.299-.294.778 0 1.077l7.41 7.436c.306.23.734.199 1.005-.072.27-.27.301-.699.071-1.005L6.592 5.515c-.145-.149-.344-.233-.552-.233-.207 0-.406.084-.55.233z"
                          transform="translate(-791 -616) translate(58 602) translate(734 15)"/>
                </g>
            </g>
        </g>
    </g>
</svg>
