<svg version="1.2" xmlns="http://www.w3.org/2000/svg" viewBox="0 0 918 831" width="918" height="831">
	<style>
		.s0 { fill: #000000 } 
		.s1 { fill: #000091 } 
		.s2 { fill: #e1000f } 
		.s3 { fill: #808080 } 
	</style>
	<g id="Calque 1">
		<g id="&lt;Group&gt;">
			<path id="&lt;Compound Path&gt;" fill-rule="evenodd" class="s0" d="m283.11 747.14c-2.96 0-4.86-2.18-4.86-6.16 0-8.89 6.9-19.03 12.96-19.03 3.52 0 6.53 2.59 4.03 8.52l-12.82 4.21c-0.24 1.11-0.37 2.31-0.37 3.52 0 2.92 1.11 4.21 3.28 4.21 2.13 0 4.26-1.85 6.25-4.21h1.58c-2.96 5.56-6.58 8.94-10.05 8.94zm0.09-15.33l7.97-1.85c0.79-3.29-0.7-4.59-2.41-4.59-1.85 0-4.17 2.73-5.56 6.44zm6.02-12.23l5.56-9.4h4.86v0.98l-9.03 8.42zm-26.3 4.03l5.23-0.74 4.4-6.67h2.46l-2.37 6.67h6.16l-0.78 2.64h-6.35l-6.2 17.37c2.82-0.51 6.11-2.92 7.82-4.73h1.21c-2.18 5.19-8.38 8.99-12.23 8.99-1.62 0-2.45-1.58-1.85-3.15l6.76-18.48h-4.26zm-13.29 19.45c1.9-0.32 3.94-2.22 5.14-3.94h1.2c-1.75 4.63-5.88 8.01-9.4 8.01-0.88 0-2.17-0.97-1.52-2.68l7.08-18.43c-1.9 0.32-3.93 2.22-5.14 3.93h-1.2c1.76-4.67 6.16-8.01 9.86-8.01 0.88 0 2.04 0.98 1.53 2.69zm5.79-30.75c0-1.67 1.34-3.05 3.05-3.05 1.67 0 3.06 1.38 3.06 3.05 0 1.72-1.39 3.06-3.06 3.06-1.71 0-3.05-1.34-3.05-3.06zm-32.74 20.28c1.71-3.79 0.65-7.41-1.76-7.27v-0.46c1.25-1.71 2.59-2.92 3.98-2.92 2.22 0 3.01 2.18 3.01 4.63v3.43c3.85-4.44 7.09-8.06 10.28-8.06 2.22 0 3.43 1.39 3.43 3.52 0 1.25-0.42 2.83-1.25 4.49l-6.48 13.11c1.89-0.32 3.93-2.22 5.14-3.94h1.2c-1.76 4.68-6.16 8.01-9.86 8.01-1.62 0-2.6-1.71-1.86-3.14l7.55-14.5c0.88-1.67 1.07-2.78-0.28-2.78-1.85 0-6.53 2.97-8.79 5.75l-4.91 13.01c-0.51 1.34-1.07 1.66-2.32 1.66-2.04 0-3.01-1.34-2.08-3.42zm-9.91-5c-1.58 1.66-2.83 3.15-4.22 4.86l-4.9 13.01c-0.51 1.34-1.07 1.67-2.32 1.67-2.04 0-3.01-1.34-2.08-3.43l5-11.11c1.71-3.8 1.11-5.51 0-5.51-0.93 0-2.09 1.06-3.34 2.87h-1.2c1.81-3.98 4.17-8.01 6.76-8.01 2.22 0 3.01 2.17 3.01 4.63v3.42c2.78-5.97 3.47-8.05 6.21-8.05 2.31 0 2.77 2.64 1.89 5.65zm-29.26 19.54c-2.97 0-4.86-2.18-4.86-6.16 0-8.89 6.9-19.03 12.96-19.03 3.52 0 6.53 2.59 4.03 8.52l-12.83 4.21c-0.23 1.11-0.37 2.32-0.37 3.52 0 2.92 1.11 4.21 3.29 4.21 2.13 0 4.26-1.85 6.25-4.21h1.58c-2.97 5.56-6.58 8.94-10.05 8.94zm0.09-15.33l7.97-1.85c0.78-3.29-0.7-4.59-2.41-4.59-1.85 0-4.17 2.74-5.56 6.44zm-20.28-8.2l5.23-0.74 4.4-6.66h2.45l-2.36 6.66h6.16l-0.79 2.64h-6.34l-6.2 17.37c2.82-0.51 6.11-2.92 7.82-4.73h1.21c-2.18 5.19-8.39 8.99-12.23 8.99-1.62 0-2.45-1.58-1.85-3.15l6.76-18.48h-4.26zm-10.7 12.88c-1.66 3.75-0.97 5.51 0 5.51 0.93 0 2.09-1.07 3.34-2.87h1.2c-1.81 3.98-4.17 8.01-6.76 8.01-2.22 0-3.52-2.32-3.15-6.58l0.14-1.48c-3.01 4.17-5.7 8.06-8.43 8.06-2.31 0-3.8-1.39-3.8-3.8 0-8.61 9.13-20.47 19.69-20.47h0.46l2.17-2.13 1.95 0.14zm-11.25 5.88c1.53 0 4.81-3.15 6.94-5.74l3.71-9.86q-0.99-0.28-2.18-0.28c-3.56 0-9.91 7.73-9.91 13.43 0 1.71 0.56 2.45 1.44 2.45zm-9.26-14.77c-1.58 1.67-2.83 3.15-4.22 4.86l-4.91 13.01c-0.51 1.35-1.06 1.67-2.31 1.67-2.04 0-3.01-1.34-2.09-3.43l5.01-11.11c1.71-3.8 1.11-5.51 0-5.51-0.93 0-2.09 1.07-3.34 2.87h-1.2c1.8-3.98 4.17-8.01 6.76-8.01 2.22 0 3.01 2.18 3.01 4.63v3.43c2.78-5.98 3.47-8.06 6.2-8.06 2.32 0 2.78 2.64 1.9 5.65zm-48.9 18.62l0.42-1.44c5.69-1.02 6.67-1.53 8.98-7.87l5.56-15.19c2.31-6.39 1.85-6.85-3.1-7.87l0.46-1.44h25.56l-1.43 7.6h-1.72c0-4.36-0.51-5.52-4.81-5.52h-2.97c-4.16 0-4.81 0.65-5.92 3.76l-3.57 9.77h6.71c3.34 0 4.54-1.95 6.07-4.59h1.76l-4.07 11.16h-1.76c0.46-3.33 0.41-4.58-2.64-4.58h-6.81l-2.5 6.9c-2.46 6.71-1.67 6.71 4.49 7.87l-0.46 1.44z"/>
			<path id="&lt;Compound Path&gt;" fill-rule="evenodd" class="s0" d="m221.11 689.25c-2.97 0-4.87-2.17-4.87-6.16 0-8.89 6.9-19.03 12.97-19.03 3.52 0 6.53 2.59 4.03 8.52l-12.83 4.22c-0.23 1.11-0.37 2.31-0.37 3.52 0 2.91 1.11 4.21 3.29 4.21 2.13 0 4.26-1.85 6.25-4.21h1.58c-2.97 5.55-6.58 8.93-10.05 8.93zm0.09-15.33l7.96-1.85c0.79-3.29-0.69-4.58-2.4-4.58-1.86 0-4.17 2.73-5.56 6.43zm6.02-12.22l5.56-9.4h4.86v0.97l-9.03 8.43zm-26.3 4.03l5.23-0.74 4.4-6.67h2.45l-2.36 6.67h6.16l-0.79 2.64h-6.34l-6.21 17.36c2.83-0.51 6.12-2.92 7.83-4.72h1.2c-2.17 5.19-8.38 8.98-12.22 8.98-1.62 0-2.46-1.57-1.85-3.15l6.76-18.47h-4.26zm-13.29 19.45c1.9-0.33 3.93-2.23 5.14-3.94h1.2c-1.76 4.63-5.88 8.01-9.4 8.01-0.88 0-2.18-0.97-1.53-2.68l7.09-18.44c-1.9 0.33-3.94 2.23-5.14 3.94h-1.21c1.76-4.68 6.16-8.01 9.87-8.01 0.88 0 2.04 0.97 1.53 2.69zm5.78-30.75c0-1.67 1.35-3.06 3.06-3.06 1.67 0 3.06 1.39 3.06 3.06 0 1.71-1.39 3.05-3.06 3.05-1.71 0-3.06-1.34-3.06-3.05zm-15.97 26.81h1.2c-1.76 4.68-5.69 8.01-9.4 8.01-1.62 0-2.59-1.71-1.85-3.15l10.09-26.58c1.3-3.42 1.76-4.49 0.33-5.6l-1.58-1.21v-0.97l8.11-0.92 0.41 0.51-12.91 33.85c1.89-0.33 4.39-2.23 5.6-3.94zm-17.46-2.64c-1.67 3.75-0.97 5.51 0 5.51 0.93 0 2.08-1.06 3.34-2.87h1.2c-1.81 3.98-4.17 8.01-6.76 8.01-2.22 0-3.52-2.31-3.15-6.57l0.14-1.49c-3.01 4.17-5.7 8.06-8.43 8.06-2.31 0-3.8-1.39-3.8-3.8 0-8.61 9.13-20.46 19.68-20.46h0.47l2.17-2.13 1.95 0.13zm-11.25 5.89c1.52 0 4.81-3.15 6.94-5.75l3.71-9.86q-0.99-0.28-2.18-0.28c-3.57 0-9.91 7.74-9.91 13.43 0 1.71 0.56 2.46 1.44 2.46zm-25.01 15.42c-5 0-9.21-1.35-9.21-4.54 0-3.29 2.73-5.61 9.67-7.64-0.88-0.7-1.25-1.44-1.25-2.5 0-1.86 1.67-3.43 4.68-4.77-2.69-0.51-4.91-2.69-4.91-6.16 0-4.59 4.17-10.24 10.61-10.24 1.15 0 2.31 0.33 3.28 0.93h8.15l-0.78 2.64h-5.14c0.32 0.74 0.51 1.57 0.51 2.55 0 4.58-3.94 10.05-10.01 10.37-1.57 0.83-2.36 1.99-2.36 2.96 0 1.21 1.67 1.53 5.37 2.64 4.31 1.3 6.95 2.36 6.95 5.33 0 3.84-7.09 8.43-15.56 8.43zm11.21-31.31c0-1.48-0.61-2.78-2.13-2.78-3.48 0-5.7 6.07-5.7 10.19 0 1.48 0.6 2.78 2.13 2.78 3.47 0 5.7-6.07 5.7-10.19zm-8.76 28.39c5.24 0 9.08-1.71 9.08-3.98 0-1.07-1.34-1.53-4.86-2.69-2.22-0.74-3.89-1.34-5-1.9-3.38 1.34-5.74 2.87-5.74 5.33 0 2.31 2.13 3.24 6.52 3.24zm-26.07-25.33l-2.68 7.36c-2.5 6.9-3.2 7.23 4.35 7.23 5.7 0 9.77-2.92 13.01-5.98h1.95l-5.1 8.06h-28.43l0.42-1.44c5.69-1.02 6.67-1.52 8.98-7.87l5.56-15.19c2.31-6.39 1.85-6.85-3.1-7.87l0.46-1.43h25.56l-1.43 7.59h-1.72c0-4.31-0.51-5.46-4.81-5.46h-2.97c-4.17 0-4.81 0.6-5.92 3.7l-3.39 9.31h6.72c3.33 0 4.54-1.95 6.07-4.59h1.76l-4.08 11.16h-1.76c0.46-3.33 0.42-4.58-2.64-4.58zm9.08-19.4l5-7.18h5.46v0.97l-9.03 6.21z"/>
			<path id="&lt;Compound Path&gt;" fill-rule="evenodd" class="s0" d="m218.1 631.37c-2.97 0-4.87-2.18-4.87-6.16 0-8.89 6.9-19.03 12.97-19.03 3.52 0 6.53 2.59 4.03 8.52l-12.83 4.21c-0.23 1.11-0.37 2.32-0.37 3.52 0 2.92 1.11 4.22 3.29 4.22 2.13 0 4.26-1.86 6.25-4.22h1.58c-2.97 5.56-6.58 8.94-10.05 8.94zm0.09-15.33l7.96-1.85c0.79-3.29-0.69-4.59-2.4-4.59-1.86 0-4.17 2.74-5.56 6.44zm6.02-12.22l5.56-9.4h4.86v0.97l-9.03 8.43zm-25.15 4.02l4.36-0.74 4.4-6.66h2.45l-2.36 6.66h6.16l-0.79 2.64h-6.34l-6.21 17.37c2.83-0.51 6.11-2.92 7.83-4.72h1.2c-2.18 5.18-8.38 8.98-12.22 8.98-1.62 0-2.46-1.58-1.86-3.15l6.76-18.48h-3.38zm-8.15 3.99c-1.57 1.66-2.82 3.14-4.21 4.86l-4.91 13.01c-0.51 1.34-1.06 1.67-2.31 1.67-2.04 0-3.01-1.35-2.09-3.43l5-11.11c1.72-3.8 1.12-5.51 0-5.51-0.92 0-2.08 1.06-3.33 2.87h-1.2c1.8-3.99 4.16-8.01 6.76-8.01 2.22 0 3.01 2.17 3.01 4.63v3.42c2.78-5.97 3.47-8.05 6.2-8.05 2.32 0 2.78 2.64 1.9 5.65zm-29.27 19.54c-2.96 0-4.86-2.18-4.86-6.16 0-8.89 6.9-19.03 12.97-19.03 3.52 0 6.53 2.59 4.03 8.52l-12.83 4.21c-0.23 1.11-0.37 2.32-0.37 3.52 0 2.92 1.11 4.21 3.29 4.21 2.13 0 4.26-1.85 6.25-4.21h1.57c-2.96 5.56-6.57 8.94-10.05 8.94zm0.1-15.33l7.96-1.85c0.79-3.29-0.69-4.59-2.41-4.59-1.85 0-4.16 2.74-5.55 6.44zm-23.71 15.33c-2.73 0-5.74-2.09-5.74-4.31 0-0.51 0.74-2.36 1.34-3.94l8.33-21.48c1.3-3.34 1.76-4.49 0.33-5.6l-1.58-1.21v-0.97l8.11-0.93 0.42 0.51-7.74 20.33c3.06-4.17 6.11-7.59 9.36-7.59 2.59 0 3.98 1.39 3.98 5.14 0 8.7-10.51 20.05-16.81 20.05zm12.04-18.02c0-1.71-0.88-2.45-2.04-2.45-1.9 0-5.28 2.82-7.5 5.46l-2.08 5.51c-0.7 1.81-1.25 3.25-1.25 3.57 0 1.02 1.8 2.18 3.05 2.18 5.1 0 9.82-9.22 9.82-14.27zm-27.97 13.94c1.9-0.32 3.94-2.22 5.14-3.93h1.2c-1.76 4.63-5.88 8.01-9.4 8.01-0.88 0-2.17-0.98-1.52-2.69l7.08-18.43c-1.9 0.33-3.94 2.22-5.14 3.94h-1.2c1.76-4.68 6.16-8.01 9.86-8.01 0.88 0 2.04 0.97 1.53 2.68zm5.79-30.75c0-1.66 1.34-3.05 3.05-3.05 1.67 0 3.06 1.39 3.06 3.05 0 1.72-1.39 3.06-3.06 3.06-1.71 0-3.05-1.34-3.05-3.06zm-16.03 1.53c-5.69 1.02-6.71 1.53-8.98 7.87l-5.46 15.19c-2.32 6.49-1.81 7.23 2.5 7.23 5.69 0 9.4-4.36 12.55-7.83h1.94l-5.56 9.91h-25.65l0.42-1.43c5.69-1.02 6.67-1.53 8.98-7.88l5.47-15.19c2.31-6.39 1.85-6.85-3.11-7.87l0.47-1.43h16.85z"/>
		</g>
		<g id="&lt;Group&gt;">
			<g id="&lt;Group&gt;">
				<path id="&lt;Compound Path&gt;" fill-rule="evenodd" class="s1" d="m171.04 162.4c-4.21 2.07-7.22 3.1-10.24 5.27h-77.02v-83.86h108.76c0 0-2 0.62-4.21 1.61-1.52 0.68-3.63 1.62-4.89 3.17-1.27 1.58-2.54 3.17-3.01 5.07-2.06 1.27-3.33 3.17-4.44 5.07-1.43 2.69-3.49 5.07-3.17 8.08 0.32 2.54 0.95 4.92 1.43 7.61 0.15 0.95 0.31 1.74 0.63 2.69 0.32 0.95 0 2.06 0.48 2.86 0.31 0.47 0.15 1.11 0.79 1.42 0 0.16 0 0.48 0 0.64 0.16 0.16 0.16 0.31 0.47 0.31 0 0.16 0 0.48 0 0.64 1.27 1.58 2.86 3.01 3.65 4.75 0.32 0.95-1.59 0.48-2.38 0.16-1.58-0.79-2.53-2.06-3.8-3.17 0 0-0.16 0.16-0.16 0.32 0.63 1.11 3.01 2.53 1.74 3.33-0.63 0.31-1.42-0.48-2.06 0.15-0.16 0.32 0 0.64 0 0.96-0.95-0.64-1.9-0.32-2.85-0.64-0.63-0.16-0.79-1.43-1.59-1.43-2.06-0.47-3.96-0.95-6.02-1.1-2.85-0.32-5.54-0.8-8.4-0.32-2.53 0.16-4.43 2.06-6.02 3.96 0 0.16 0 0.48 0 0.48 1.11 0.15 1.59-0.8 2.54-1.11 1.58-0.32 3.01-0.95 4.59-1.27 2.38-0.48 4.6-1.11 6.82-0.95 0.47 0 1.11-0.16 1.58 0-2.85-0.16-5.39 0.79-8.08 1.58-1.88 0.56-3.8 0.64-5.55 1.59 4.12-0.16 8.24 0.47 12.21 1.74 1.42 0.48 2.69 1.11 3.96 1.9 0.63 0.48 0.95 0.95 1.58 1.27 0.79 0.48 1.9 0.48 2.7 0.16 0.16 0 0.63 0 0.79 0 2.38-0.64 4.91-1.27 6.5-3.01 0 0.16 0.15 0.16 0.31 0.16-0.47 1.26-0.47 2.69-1.42 3.8 0 0.16-0.16 0.48 0.16 0.63 0.15 0 0.15 0 0.31 0-0.16 0-0.31 0-0.31 0.16 0 0.32 0.47 0 0.63 0.32-0.79 0.16-1.59 0.32-2.06 0.95 0 0.16 0.32 0.16 0.47 0.16-0.31 0.32-0.79 0.16-0.95 0.47 0 0 0.16 0.16 0.32 0.16-0.16 0-0.32 0-0.32 0.16q0 0.24 0 0.48c-0.47 0-0.63 0.31-0.95 0.47 0.64 0.48 1.11 0 1.75 0-1.75 0.64-3.17 1.59-4.92 2.06-0.31 0 0 0.48-0.31 0.48 0.47 0.31 0.79-0.16 1.26-0.16-2.21 1.27-4.43 2.38-6.81 3.8 0 0-0.32 0.32-0.32 0.64-0.16 0-0.47 0-0.63 0-0.32 0.15-0.16 0.63-0.48 0.95 0.8 0.47 1.75-0.64 2.22 0 0.16 0-0.31 0.16-0.63 0.16-0.16 0-0.16 0.31-0.32 0.31q-0.24 0-0.47 0c-0.32 0.32-0.64 0.48-0.64 0.95-0.31 0-0.63 0-0.79 0.32 3.49-0.48 7.13-0.16 10.46-1.9 2.53-1.27 4.91-3.01 6.97-5.23 0 0 0.16 0.16 0.16 0.32-0.47 1.58-1.43 2.69-2.69 3.64-0.95 0.48-1.59 1.27-2.38 1.59q-0.71 0.47-1.43 0.95c-5.86 2.06-12.83 1.11-17.9 5.07 0-0.16-0.16-0.16-0.32-0.16-0.32 0.32-0.79 0.47-0.95 0.79q0 0.08 0.04 0.12c0.21 0.21 0.39 0.14 0.39 0.14 0.06-0.06 0.27-0.14 0.27-0.14 0.8-0.53 1.61-0.94 2.52-1.25q-0.13 0.12-0.26 0.23c-0.61 0.34-1.22 0.71-1.82 1.02h0.04q-0.64 0.37-1.08 0.94c0.11 0.05 0.2 0.16 0.12 0.29q-0.09 0.14-0.17 0.29-0.05 0.08-0.1 0.16-0.1 0.18-0.2 0.35-0.04 0.07-0.09 0.15-0.05 0.1-0.11 0.2-0.03 0.05-0.06 0.11-0.04 0.07-0.07 0.13-0.04 0.07-0.08 0.14-0.01 0.02-0.02 0.04-0.01 0.02-0.03 0.04-0.01 0.02-0.02 0.04 0.06 0.04 0.17 0.06c0.09 0.03 0.2 0.03 0.24 0.03 0.58 0.01 0.87-0.69 1.25-1.03 0.22-0.2 0.49-0.35 0.75-0.52q0.06 0.06 0.12 0.12-0.03 0.07-0.05 0.14-0.14 0.22-0.28 0.44c-0.08 0.11 0.08 0.19 0.18 0.16q0 0.01 0 0.02c-0.93 0.57-1.87 1.22-2.66 1.99q0.14 0 0.22 0.08 0.09 0.08 0.01 0.21-0.36 0.47-0.68 0.96-0.24 0.37-0.47 0.74-0.2 0.33-0.4 0.67-0.05 0.07-0.1 0.15 0 0.01-0.01 0.01c0.18 0.03 0.42 0 0.48-0.05q1.29-1.22 2.56-2.45 0.15 0 0.25-0.08c0.86-0.7 1.65-1.56 2.63-2.06 0.45-0.23 0.75-0.57 1.09-0.95q0.11-0.12 0.23-0.27 0.05-0.03 0.1-0.06 1.42-0.78 2.96-1.19 0.08-0.02 0.16-0.04c1.92-0.41 3.84-0.84 5.76-1.03 1.27 0 2.54 0.16 3.97-0.16 0.98-0.22 1.9-0.79 2.85-1.11 0 0.16 0 0.16 0 0.32 2.38-0.95 4.12-3.01 6.5-3.8 0.16 0 0.47 0.31 0.79 0.15 1.43-1.26 3.01-2.69 5.07-2.37 0 0.16 0 0.31 0.16 0.31q0.05 0.01 0.11 0-0.85 0.64-1.7 1.27c-0.15 0.16 0 0.32 0.16 0.32 0.79-0.32 1.27-0.95 2.06-1.27-0.16 0.16-0.16 0.48-0.31 0.64q-0.83 0.57-1.73 1.37c-1.95 1.68-3.6 3.49-5.28 5.4h0.02c-0.91 0.97-1.82 1.93-2.72 2.83-1.54 1.55-6.09 3.64-8.08 4.62zm-17.55-18.5c0.47-0.32 0.95-0.32 1.58-0.32 0.16 0 0.16-0.32 0.16-0.48 0.47 0.16 0.79 0.16 1.27 0.16 3.8-0.79 7.45-1.58 10.93-3.33-4.12-3.16-9.35-4.27-14.26-5.7 0.47 0 0.95 0.47 1.43 0-0.8-0.63-1.75-0.32-2.54-0.79 0.16 0 0.47 0.16 0.63-0.16-1.26-0.64-2.53-0.64-3.8-0.95 0.79-0.16 1.27-0.79 1.27-1.59 0-0.16-0.32-0.16-0.48-0.16-1.9 0.96-3.17 2.7-3.96 4.76 1.11 0.63 2.38 0.16 3.49 0.32-0.48 0.47-1.27 0.47-1.9 0.63-0.49 0.12-0.96 0.48-0.8 0.79q0.16 0.2 0.36 0.23c-0.36 0.11-0.7 0.27-0.99 0.56 0.63 0.48 1.27 0.16 1.9 0.16 0 0.32 0.32 0.32 0.48 0.48-0.8 0.32-1.43 0.95-1.59 1.42-0.32 0.8-1.11 1.11-1.58 1.75q0 0.24 0 0.47c-1.59 1.43-3.33 2.38-4.6 4.12 0.16 0 0.16 0.16 0.16 0.32-0.32 0.48-0.95 0.63-1.11 1.11 0 0.16 0 0.32 0.16 0.32 1.9-0.64 3.33-2.06 5.07-2.7 1.27-0.31 2.22-1.11 3.33-1.42 0.79-0.16 1.74-0.48 2.53-0.64 0 0.16 0 0.32 0.16 0.32 0.48 0 0.79 0 1.27 0-0.16 0.32-0.79 0.16-0.63 0.32 0.47 0.47 1.42 0.31 2.06 0zm-10.78-11.89c0.32-0.16-0.48 0.48 0.16 0.32 2.06-0.48 2.69-2.54 3.64-4.12 1.27-2.06 3.49-2.86 5.07-4.6 0 0.16 0 0.32-0.15 0.48 0.15 0.16 0.31 0.16 0.47 0.16 0.63-0.48 1.43-0.32 1.9-0.96-1.27-0.47-2.85-0.63-4.12-0.15-3.33 1.58-6.18 4.12-8.87 6.97-1.62 1.71-3.33 3.33-5.39 4.44-1.43 2.85-3.01 5.38-5.07 8.08 0 0.16 0.16 0.32 0.16 0.32 3.8-4.28 7.29-7.93 12.2-10.94zm0.79 0.16c-0.63 0.16-1.11 0.79-1.27 1.43 0 0.15 0.16 0.15 0.32 0.15 0.32-0.15 0.48-0.31 0.63-0.63 0.15-0.28 0.32-0.32 0.48-0.63 0-0.16 0-0.32-0.16-0.32zm8.72 20.28c-0.48-0.31-0.95-0.31-1.43-0.31-0.79 0.16-1.74-0.32-2.53 0-2 0.93-4.56 0.87-6.07 2.33q-0.01 0.01-0.02 0.02-0.19 0.18-0.36 0.39-0.03 0.04-0.06 0.07-0.22 0.18-0.49 0.37c-0.3 0.22-0.55 0.55-0.81 0.8q-0.01 0.02-0.02 0.03-0.16 0.17-0.36 0.33c-0.2 0.15 0.12 0.36 0.29 0.23 0.21-0.15 0.36-0.36 0.59-0.5q0.03-0.02 0.07-0.04-0.37 0.4-0.63 0.85 0.03 0.05 0.02 0.11-0.02 0.12-0.05 0.23-0.01 0.02-0.01 0.04-0.03 0.09-0.05 0.17-0.02 0.06-0.04 0.11-0.01 0.02-0.01 0.04-0.07 0.19-0.15 0.37-0.02 0.03-0.03 0.06-0.01 0.01-0.02 0.03 0 0.01-0.01 0.02-0.08 0.16-0.17 0.32-0.11 0.17-0.22 0.34-0.03 0.05-0.07 0.1 0 0.01-0.01 0.02-0.23 0.33-0.5 0.67-0.04 0.06-0.09 0.12-0.13 0.17-0.27 0.34-0.08 0.1-0.16 0.2-0.02 0.02-0.03 0.04-0.24 0.3-0.5 0.57 0.02 0.04 0.04 0.08 0 0.01 0 0.01 0.06 0.13 0.14 0.26 0.02 0.03 0.04 0.07 0.03 0.05 0.06 0.1 0.09-0.02 0.13-0.07 0.01 0 0.01-0.01 0.05-0.08 0.11-0.15 0-0.01 0.01-0.02 0.03-0.04 0.05-0.07 0.03-0.03 0.05-0.06 0.02-0.02 0.03-0.04 0.01-0.01 0.02-0.02 0.42-0.53 0.92-0.98 0.28-0.25 0.57-0.48 0.05-0.04 0.11-0.04 0.06 0 0.11 0.02 0.12-0.07 0.25-0.14 0.14-0.07 0.28-0.14 0 0.01 0 0.03c-0.03 0.18 0.25 0.18 0.34 0.12 0.11-0.07 0.14-0.13 0.22-0.22q0.18-0.21 0.34-0.37 0-0.01 0.01-0.02 0.01-0.01 0.03-0.02 0.11-0.12 0.22-0.23 0.01 0 0.01-0.01 0.01-0.01 0.02-0.01 0.11-0.11 0.22-0.22c0.48-0.46 0.99-0.89 1.59-1.21 0.11-0.06 0.22-0.01 0.27 0.06q0.01 0.02 0.02 0.04c0.7-0.33 1.41-0.63 2.09-1.02 0.63-0.37 1.22-0.79 1.81-1.21q0.02-0.02 0.04-0.03c1.3-0.81 2.61-1.69 4.04-2.47zm-2.04 3.64c-0.14 0.09-0.23 0.22-0.34 0.35-0.2 0.23-0.43 0.42-0.66 0.63-0.4 0.36-0.77 0.75-1.17 1.1-0.27 0.24 0.6 0.36 0.79 0.19q0.3-0.27 0.59-0.55 0.19-0.01 0.25-0.03c0.48-0.17 0.83-0.5 1.2-0.84 0.13-0.12-0.01-0.21-0.21-0.25 0.16-0.14 0.32-0.29 0.39-0.46 0.13-0.31-0.71-0.24-0.84-0.14zm7.9-10.61c-0.32-0.32-0.79-0.16-1.11-0.63-0.31-0.16-0.79 0.16-1.11 0.31-0.63 0.32-1.74 0.32-1.9 1.11-0.16 0.32 0.48 0.16 0.79 0.16 1.11-0.47 2.38 0 3.33-0.95z"/>
				<g id="&lt;Group&gt;">
					<path id="&lt;Path&gt;" class="s2" d="m314.41 83.81h-90.22c0 0 0.17 0.03 0.86 0.4 0.73 0.39 1.68 0.9 2.27 1.21 1.17 0.61 2.3 1.37 3.03 2.53 0.31 0.48 0.79 1.43 0.47 2.06-0.31 0.8-0.47 2.06-1.27 2.38-0.95 0.48-2.21 0.48-3.32 0.32-0.64 0-1.27-0.16-1.91-0.32 2.38 0.95 4.6 2.06 6.19 4.28 0.15 0.32 0.79 0.48 1.42 0.48 0.16 0 0.16 0.31 0.16 0.47-0.32 0.32-0.63 0.48-0.48 0.95q0.24 0 0.48 0c0.79-0.31 0.63-1.9 1.74-1.42 0.8 0.47 1.11 1.58 0.64 2.37-0.64 0.64-1.27 1.11-1.9 1.59-0.16 0.31-0.16 0.79 0 1.11 0.47 0.63 0.63 1.27 0.79 1.9 0.47 1.11 0.63 2.38 1.11 3.49 0.63 2.37 1.26 4.75 1.11 7.13 0 1.26-0.64 2.37-0.16 3.64 0.31 1.27 1.11 2.22 1.74 3.33 0.63 0.95 1.27 1.58 1.74 2.54 0.96 1.58 2.7 3.16 1.91 5.07-0.48 1.11-2.22 0.95-3.33 1.58-0.95 0.79-0.16 2.06 0.31 2.85 0.8 1.43-0.95 2.38-2.06 2.86 0.32 0.47 0.96 0.31 1.11 0.63 0.16 0.79 0.95 1.27 0.48 2.06-0.63 0.95-2.54 1.43-1.59 2.85 0.64 1.11 0.23 2.34-0.15 3.49-0.48 1.43-1.75 2.06-2.86 2.38-0.95 0.31-2.06 0.31-3.01 0.16-0.31-0.16-0.63-0.32-0.95-0.32-2.69-0.32-5.39-1.11-8.08-1.11-0.79 0.16-1.59 0.32-2.22 0.63q-1.07 0.79-1.92 1.7-0.01 0.01-0.02 0.02-0.17 0.19-0.34 0.38-0.11 0.12-0.21 0.25-0.06 0.08-0.13 0.16-0.69 0.87-1.25 1.83-0.03 0.06-0.07 0.12-0.06 0.11-0.12 0.22-0.78 1.45-1.2 2.91c-1.08 3.63-0.61 6.74 0.15 7.5 0.21 0.21 5.23 1.76 8.73 3.31 1.64 0.73 2.78 1.29 3.74 1.89h88.59z"/>
				</g>
				<path id="&lt;Path&gt;" class="s3" d="m229.56 114.41c0.63 0.15 1.58 0.15 1.58 0.47-0.31 1.27-2.22 1.59-3.17 2.85h-0.47c-0.48 0.32-0.32 1.11-0.79 1.11-0.48-0.16-0.96 0-1.43 0.16 0.63 0.64 1.43 1.11 2.38 0.95 0.16 0 0.47 0.32 0.47 0.64 0 0 0.16 0 0.32-0.16 0.16 0 0.32 0 0.32 0.16v0.63c-0.48 0.63-1.27 0.32-1.91 0.48 1.27 0.31 2.54 0.31 3.65 0 0.95-0.32 0-1.91 0.63-2.7-0.31 0 0-0.47-0.31-0.47 0.31-0.32 0.63-0.8 0.95-0.95 0.31 0 0.79-0.16 0.95-0.48 0-0.32-0.64-0.48-0.48-0.79 0.95-0.64 1.75-1.59 1.43-2.54-0.16-0.47-1.43-0.47-2.22-0.79-0.79-0.32-1.74 0-2.69 0.16-0.8 0-1.59 0.47-2.38 0.63-1.11 0.32-2.06 0.95-3.01 1.59 1.11-0.48 2.22-0.64 3.48-0.95 0.96 0 1.76-0.24 2.7 0z"/>
			</g>
		</g>
		<g id="&lt;Group&gt;">
			<path id="&lt;Compound Path&gt;" class="s0" d="m83.78 210.2h15.93l15.39 26.46 15.39-26.46h15.93v63h-12.78v-45.18l-14.04 23.58h-9l-14.04-23.58v45.18h-12.78z"/>
			<path id="&lt;Compound Path&gt;" class="s0" d="m163.97 210.2h12.78v63h-12.78z"/>
			<path id="&lt;Compound Path&gt;" class="s0" d="m194.39 210.2h16.38l28.17 45.54v-45.54h12.78v63h-16.38l-28.17-45.54v45.54h-12.78z"/>
			<path id="&lt;Compound Path&gt;" class="s0" d="m269.36 210.2h12.78v63h-12.78z"/>
			<path id="&lt;Compound Path&gt;" class="s0" d="m303.38 255.92c3.78 4.86 8.82 7.74 13.95 7.74 5.04 0 8.1-2.7 8.1-7.2 0-11.61-28.62-8.46-28.62-29.79 0-9.99 8.28-18.27 20.34-18.27 9.45 0 16.65 4.23 22.05 10.62l-9.36 8.46c-3.69-4.77-7.83-7.92-12.6-7.92-4.5 0-7.47 2.88-7.47 6.66 0 11.43 28.62 8.19 28.62 29.79-0.18 11.88-9.36 18.99-20.97 18.99-10.62 0-17.73-3.87-23.31-10.53z"/>
			<path id="&lt;Compound Path&gt;" class="s0" d="m344.87 210.2h51.66v11.61h-19.44v51.39h-12.78v-51.39h-19.44z"/>
			<path id="&lt;Compound Path&gt;" class="s0" d="m407.78 210.2h36.72v10.62h-23.94v14.94h20.34v10.62h-20.34v16.2h23.94v10.62h-36.72zm1.08-17.55h13.14l10.17 12.15h-11.7z"/>
			<path id="&lt;Compound Path&gt;" fill-rule="evenodd" class="s0" d="m459.35 210.2h19.26c13.86 0 22.41 7.11 22.41 18.81 0 7.65-3.69 13.32-10.17 16.29l19.7 27.9h-15.02l-16.83-25.47h-6.57v25.47h-12.78zm12.78 10.62v16.29h7.2c5.4 0 8.55-3.15 8.55-8.28 0-4.77-3.15-8.01-8.55-8.01z"/>
			<path id="&lt;Compound Path&gt;" class="s0" d="m518.66 210.2h36.71v10.62h-23.93v14.94h20.33v10.62h-20.33v16.2h23.93v10.62h-36.71z"/>
			<path id="&lt;Compound Path&gt;" fill-rule="evenodd" class="s0" d="m83.78 302.2h24.75c19.98 0 33.48 14.49 33.48 31.5 0 17.01-13.5 31.5-33.48 31.5h-24.75zm12.78 11.61v39.78h12.15c11.7 0 20.16-8.73 20.16-19.89 0-11.25-8.46-19.89-20.16-19.89z"/>
			<path id="&lt;Compound Path&gt;" class="s0" d="m154.34 302.2h36.72v10.62h-23.94v14.94h20.34v10.62h-20.34v16.2h23.94v10.62h-36.72z"/>
			<path id="&lt;Compound Path&gt;" class="s0" d="m229.31 302.2h12.78v51.39h23.94v11.61h-36.72z"/>
			<path id="&lt;Compound Path&gt;" class="s0" d="m263.33 328.12l8.1-25.92h12.96l-10.44 25.92z"/>
			<path id="&lt;Compound Path&gt;" fill-rule="evenodd" class="s0" d="m303.11 302.2h16.74l23.85 63h-13.59l-6.03-16.38h-25.2l-6.03 16.38h-13.59zm17.01 35.73l-8.64-23.67-8.64 23.67z"/>
			<path id="&lt;Compound Path&gt;" class="s0" d="m396.53 346.39l10.08 7.74c-5.76 7.83-15.12 12.87-26.55 12.87-19.89 0-33.48-15.3-33.48-33.3 0-18 13.59-33.3 33.48-33.3 11.43 0 20.79 5.13 26.55 12.78l-10.08 7.83c-3.6-5.13-9.27-8.64-16.47-8.64-11.88 0-20.34 9.27-20.34 21.33 0 12.06 8.46 21.33 20.34 21.33 7.2 0 12.87-3.51 16.47-8.64z"/>
			<path id="&lt;Compound Path&gt;" class="s0" d="m411.2 302.2h51.66v11.61h-19.44v51.39h-12.78v-51.39h-19.44z"/>
			<path id="&lt;Compound Path&gt;" class="s0" d="m474.11 302.2h12.78v63h-12.78z"/>
			<path id="&lt;Compound Path&gt;" fill-rule="evenodd" class="s0" d="m565.99 333.7c0 18-13.59 33.3-33.38 33.3-19.89 0-33.48-15.3-33.48-33.3 0-18 13.59-33.3 33.48-33.3 19.79 0 33.38 15.3 33.38 33.3zm-13.14 0c0-12.06-8.46-21.33-20.24-21.33-11.88 0-20.34 9.27-20.34 21.33 0 12.06 8.46 21.33 20.34 21.33 11.78 0 20.24-9.27 20.24-21.33z"/>
			<path id="&lt;Compound Path&gt;" class="s0" d="m578.24 302.2h16.38l28.16 45.54v-45.54h12.78v63h-16.38l-28.16-45.54v45.54h-12.78z"/>
			<path id="&lt;Compound Path&gt;" class="s0" d="m83.78 394.2h36.72v10.62h-23.94v14.94h20.34v10.62h-20.34v16.2h23.94v10.62h-36.72z"/>
			<path id="&lt;Compound Path&gt;" class="s0" d="m130.22 394.2h51.66v11.61h-19.44v51.39h-12.78v-51.39h-19.44z"/>
			<path id="&lt;Compound Path&gt;" fill-rule="evenodd" class="s0" d="m216.53 394.2h24.75c19.98 0 33.48 14.49 33.48 31.5 0 17.01-13.5 31.5-33.48 31.5h-24.75zm12.78 11.61v39.78h12.15c11.7 0 20.16-8.73 20.16-19.89 0-11.25-8.46-19.89-20.16-19.89z"/>
			<path id="&lt;Compound Path&gt;" class="s0" d="m287.09 394.2h36.72v10.62h-23.94v14.94h20.34v10.62h-20.34v16.2h23.94v10.62h-36.72z"/>
			<path id="&lt;Compound Path&gt;" class="s0" d="m342.26 439.92c3.78 4.86 8.82 7.74 13.95 7.74 5.04 0 8.1-2.7 8.1-7.2 0-11.61-28.62-8.46-28.62-29.79 0-9.99 8.28-18.27 20.34-18.27 9.45 0 16.65 4.23 22.05 10.62l-9.36 8.46c-3.69-4.77-7.83-7.92-12.6-7.92-4.5 0-7.47 2.88-7.47 6.66 0 11.43 28.62 8.19 28.62 29.79-0.18 11.88-9.36 18.99-20.97 18.99-10.62 0-17.73-3.87-23.31-10.53z"/>
			<path id="&lt;Compound Path&gt;" class="s0" d="m458.62 438.39l10.08 7.74c-5.76 7.83-15.12 12.87-26.54 12.87-19.89 0-33.48-15.3-33.48-33.3 0-18 13.59-33.3 33.48-33.3 11.42 0 20.78 5.13 26.54 12.78l-10.08 7.83c-3.6-5.13-9.27-8.64-16.46-8.64-11.88 0-20.34 9.27-20.34 21.33 0 12.06 8.46 21.33 20.34 21.33 7.19 0 12.86-3.51 16.46-8.64z"/>
			<path id="&lt;Compound Path&gt;" fill-rule="evenodd" class="s0" d="m540.79 425.7c0 18-13.59 33.3-33.39 33.3-19.88 0-33.47-15.3-33.47-33.3 0-18 13.59-33.3 33.47-33.3 19.8 0 33.39 15.3 33.39 33.3zm-13.14 0c0-12.06-8.46-21.33-20.25-21.33-11.88 0-20.33 9.27-20.33 21.33 0 12.06 8.45 21.33 20.33 21.33 11.79 0 20.25-9.27 20.25-21.33z"/>
			<path id="&lt;Compound Path&gt;" class="s0" d="m553.03 394.2h15.93l15.39 26.46 15.39-26.46h15.93v63h-12.78v-45.18l-14.04 23.58h-9l-14.04-23.58v45.18h-12.78z"/>
			<path id="&lt;Compound Path&gt;" fill-rule="evenodd" class="s0" d="m633.22 394.2h20.79c13.86 0 22.32 7.11 22.32 18.81 0 11.61-8.46 18.72-22.32 18.72h-8.01v25.47h-12.78zm12.78 10.62v16.29h8.55c5.4 0 8.64-3.15 8.64-8.28 0-4.77-3.24-8.01-8.64-8.01z"/>
			<path id="&lt;Compound Path&gt;" class="s0" d="m680.65 394.2h51.66v11.61h-19.44v51.39h-12.78v-51.39h-19.44z"/>
			<path id="&lt;Compound Path&gt;" class="s0" d="m743.56 394.2h36.72v10.62h-23.94v14.94h20.34v10.62h-20.34v16.2h23.94v10.62h-36.72z"/>
			<path id="&lt;Compound Path&gt;" class="s0" d="m798.73 439.92c3.78 4.86 8.82 7.74 13.95 7.74 5.04 0 8.1-2.7 8.1-7.2 0-11.61-28.62-8.46-28.62-29.79 0-9.99 8.28-18.27 20.34-18.27 9.45 0 16.65 4.23 22.05 10.62l-9.36 8.46c-3.69-4.77-7.83-7.92-12.6-7.92-4.5 0-7.47 2.88-7.47 6.66 0 11.43 28.62 8.19 28.62 29.79-0.18 11.88-9.36 18.99-20.97 18.99-10.62 0-17.73-3.87-23.31-10.53z"/>
			<path id="&lt;Compound Path&gt;" fill-rule="evenodd" class="s0" d="m83.78 486.2h20.79c13.86 0 22.32 7.11 22.32 18.81 0 11.61-8.46 18.72-22.32 18.72h-8.01v25.47h-12.78zm12.78 10.62v16.29h8.55c5.4 0 8.64-3.15 8.64-8.28 0-4.77-3.24-8.01-8.64-8.01z"/>
			<path id="&lt;Compound Path&gt;" class="s0" d="m174.59 486.2h12.78v38.34c0 16.56-9.72 26.46-25.56 26.46-15.75 0-25.47-9.9-25.47-26.46v-38.34h12.78v39.42c0 8.46 4.77 13.41 12.78 13.41 7.83 0 12.69-4.95 12.69-13.41z"/>
			<path id="&lt;Compound Path&gt;" fill-rule="evenodd" class="s0" d="m203.21 486.2h18.54c13.14 0 21.15 6.48 21.15 17.1 0 5.13-2.34 9.54-6.75 12.42 6.66 2.97 10.35 8.37 10.35 14.94 0 11.52-8.91 18.54-23.4 18.54h-19.89zm12.78 10.62v14.22h6.03c4.86 0 7.74-2.61 7.74-7.2 0-4.41-2.88-7.02-7.74-7.02zm0 24.84v16.92h7.83c5.94 0 9.54-3.15 9.54-8.46 0-5.4-3.6-8.46-9.54-8.46z"/>
			<path id="&lt;Compound Path&gt;" class="s0" d="m259.64 486.2h12.78v51.39h23.94v11.61h-36.72z"/>
			<path id="&lt;Compound Path&gt;" class="s0" d="m307.61 486.2h12.78v63h-12.78z"/>
			<path id="&lt;Compound Path&gt;" class="s0" d="m382.58 530.39l10.08 7.74c-5.76 7.83-15.12 12.87-26.55 12.87-19.89 0-33.48-15.3-33.48-33.3 0-18 13.59-33.3 33.48-33.3 11.43 0 20.79 5.13 26.55 12.78l-10.08 7.83c-3.6-5.13-9.27-8.64-16.47-8.64-11.88 0-20.34 9.27-20.34 21.33 0 12.06 8.46 21.33 20.34 21.33 7.2 0 12.87-3.51 16.47-8.64z"/>
			<path id="&lt;Compound Path&gt;" class="s0" d="m407.6 531.92c3.78 4.86 8.82 7.74 13.95 7.74 5.04 0 8.09-2.7 8.09-7.2 0-11.61-28.61-8.46-28.61-29.79 0-9.99 8.28-18.27 20.34-18.27 9.44 0 16.64 4.23 22.04 10.62l-9.36 8.46c-3.68-4.77-7.83-7.92-12.59-7.92-4.5 0-7.47 2.88-7.47 6.66 0 11.43 28.61 8.19 28.61 29.79-0.18 11.88-9.36 18.99-20.96 18.99-10.62 0-17.73-3.87-23.31-10.53z"/>
		</g>
	</g>
	<g id="Calque 2">
	</g>
	<g id="Calque 3">
	</g>
</svg>