<svg width="160" height="54" viewBox="0 0 160 54" xmlns="http://www.w3.org/2000/svg">
    <g fill="none" fill-rule="evenodd">
        <g fill="#FFF">
            <path d="M87.41 42.032h2.658v.797c.712-.692 1.612-1.216 2.91-1.216 1.38 0 2.595.63 3.286 1.845.774-.964 1.8-1.845 3.454-1.845 2.177 0 3.893 1.51 3.893 4.486v6.5h-2.68v-6.395c0-1.279-.69-2.075-1.883-2.075-1.13 0-1.78.817-2.198 1.51.02.146.02.314.02.46v6.5h-2.7v-6.395c0-1.279-.67-2.075-1.862-2.075-1.214 0-1.843.901-2.24 1.572v6.897h-2.659V42.032zM108.78 45.848h4.752c-.042-1.048-.816-2.013-2.219-2.013-1.298 0-2.177.63-2.533 2.013m2.973 7.17c-3.747 0-5.861-2.62-5.861-5.703 0-3.123 1.967-5.702 5.421-5.702 2.93 0 4.857 1.97 4.857 4.738 0 .587-.084 1.153-.168 1.51h-7.389c.167 1.74 1.382 2.767 3.182 2.767 1.151 0 2.093-.503 2.658-1.258l1.905 1.51c-.984 1.32-2.617 2.138-4.605 2.138M118.765 42.032h2.658v.839c.733-.713 1.717-1.258 3.12-1.258 2.28 0 4.102 1.572 4.102 4.696v6.29h-2.7v-6.185c0-1.405-.775-2.285-2.073-2.285-1.34 0-2.051.901-2.449 1.572v6.897h-2.658V42.032zM132.328 44.464h-1.967v-2.432h1.967v-2.641h2.68v2.641h3.223v2.432h-3.223v4.277c0 1.174.628 1.635 1.674 1.635.733 0 1.214-.084 1.57-.23v2.327c-.523.23-1.151.335-2.03.335-2.638 0-3.894-1.488-3.894-4.067v-4.277zM148.446 47.315c0-1.845-1.277-3.186-2.972-3.186-1.759 0-3.056 1.341-3.056 3.186s1.297 3.187 3.056 3.187c1.695 0 2.972-1.363 2.972-3.187m2.763 0c0 3.166-2.344 5.703-5.777 5.703-3.433 0-5.777-2.537-5.777-5.703 0-3.165 2.344-5.702 5.777-5.702 3.433 0 5.777 2.537 5.777 5.702M153.637 42.032h2.658v1.049c.69-.713 1.59-1.258 2.784-1.258.356 0 .67.063.921.146v2.789a4.572 4.572 0 0 0-1.172-.147c-1.298 0-2.135.713-2.533 1.363v6.624h-2.658V42.032z"/>
        </g>
        <path d="M33.206 52.802a3.963 3.963 0 0 1-3.96-3.966V37.883c0-5.888-4.784-10.679-10.663-10.679-5.88 0-10.662 4.79-10.662 10.679v10.953a3.963 3.963 0 0 1-3.96 3.966A3.963 3.963 0 0 1 0 48.836V37.883C0 27.62 8.336 19.27 18.583 19.27c10.247 0 18.583 8.35 18.583 18.612v10.953a3.963 3.963 0 0 1-3.96 3.966"
              fill="#00006D"/>
        <path d="M62.438 52.85a3.963 3.963 0 0 1-3.96-3.966V28.08c0-5.888-4.784-10.679-10.663-10.679-5.879 0-10.662 4.79-10.662 10.68v20.803a3.963 3.963 0 0 1-3.96 3.966 3.963 3.963 0 0 1-3.961-3.966V28.08c0-10.262 8.336-18.611 18.583-18.611 10.247 0 18.583 8.349 18.583 18.611v20.804a3.963 3.963 0 0 1-3.96 3.966"
              fill="#FFF"/>
        <path d="M91.703 35.275a3.963 3.963 0 0 1-3.96-3.966V18.61c0-5.888-4.783-10.678-10.662-10.678-5.88 0-10.663 4.79-10.663 10.678v19.09a3.963 3.963 0 0 1-3.96 3.966 3.963 3.963 0 0 1-3.96-3.966V18.61C58.497 8.35 66.833 0 77.08 0c10.246 0 18.583 8.35 18.583 18.611V31.31a3.963 3.963 0 0 1-3.96 3.966"
              fill="#FFF"/>
    </g>
</svg>
