<?xml version="1.0" encoding="UTF-8"?>
<svg xmlns="http://www.w3.org/2000/svg" version="1.1" viewBox="0 0 1275 756">
  <defs>
    <style>
      .cls-1 {
        fill: #000091;
      }

      .cls-2 {
        fill: #e1000f;
      }

      .cls-3 {
        fill: #9d9d9c;
      }
    </style>
  </defs>
  <!-- Generator: Adobe Illustrator 28.7.1, SVG Export Plug-In . SVG Version: 1.2.0 Build 142)  -->
  <g>
    <g id="CREA">
      <path d="M207.52,732.87c1.71,0,3.2,1.3,2.41,4.58l-7.96,1.85c1.39-3.7,3.7-6.44,5.56-6.44M211.92,745.69h-1.57c-1.99,2.36-4.12,4.21-6.25,4.21s-3.29-1.3-3.29-4.21c0-1.2.14-2.41.37-3.52l12.83-4.21c2.5-5.93-.51-8.52-4.03-8.52-6.07,0-12.97,10.14-12.97,19.03,0,3.98,1.9,6.16,4.86,6.16,3.47,0,7.08-3.38,10.05-8.94M209.37,727.08l9.03-8.43v-.97h-4.86l-5.56,9.4h1.39ZM181.68,733h4.26l-6.76,18.48c-.6,1.57.23,3.15,1.85,3.15,3.84,0,10.05-3.8,12.23-8.98h-1.2c-1.71,1.81-5,4.21-7.83,4.72l6.21-17.37h6.34l.79-2.64h-6.16l2.36-6.67h-2.45l-4.4,6.67-5.23.74v1.9ZM175.94,732.12c.51-1.71-.65-2.69-1.53-2.69-3.7,0-8.1,3.33-9.86,8.01h1.2c1.2-1.71,3.24-3.61,5.14-3.94l-7.08,18.43c-.65,1.71.65,2.69,1.53,2.69,3.52,0,7.64-3.38,9.4-8.01h-1.2c-1.2,1.71-3.24,3.61-5.14,3.94l7.55-18.43ZM177.23,722.86c1.67,0,3.06-1.34,3.06-3.06s-1.39-3.06-3.06-3.06-3.06,1.39-3.06,3.06,1.34,3.06,3.06,3.06M136.44,751.2c-.93,2.08.05,3.43,2.08,3.43,1.25,0,1.81-.32,2.32-1.67l4.91-13.01c2.27-2.78,6.95-5.74,8.8-5.74,1.34,0,1.16,1.11.28,2.78l-7.55,14.49c-.74,1.44.23,3.15,1.85,3.15,3.7,0,8.1-3.33,9.86-8.01h-1.2c-1.2,1.71-3.24,3.61-5.14,3.94l6.48-13.1c.83-1.67,1.25-3.24,1.25-4.49,0-2.13-1.2-3.52-3.43-3.52-3.2,0-6.44,3.61-10.28,8.06v-3.43c0-2.45-.79-4.63-3.01-4.63-1.39,0-2.73,1.2-3.98,2.92v.46c2.41-.14,3.47,3.47,1.76,7.27l-5,11.11ZM136.35,735.09c.88-3.01.42-5.65-1.9-5.65-2.73,0-3.43,2.08-6.21,8.06v-3.43c0-2.45-.79-4.63-3.01-4.63-2.59,0-4.95,4.03-6.76,8.01h1.2c1.25-1.81,2.41-2.87,3.33-2.87,1.11,0,1.71,1.71,0,5.51l-5,11.11c-.93,2.08.05,3.43,2.08,3.43,1.25,0,1.81-.32,2.32-1.67l4.91-13.01c1.39-1.71,2.64-3.2,4.21-4.86h4.82ZM107.91,732.87c1.71,0,3.2,1.3,2.41,4.58l-7.96,1.85c1.39-3.7,3.7-6.44,5.56-6.44M112.31,745.69h-1.57c-1.99,2.36-4.12,4.21-6.25,4.21s-3.29-1.3-3.29-4.21c0-1.2.14-2.41.37-3.52l12.83-4.21c2.5-5.93-.51-8.52-4.03-8.52-6.07,0-12.97,10.14-12.97,19.03,0,3.98,1.9,6.16,4.86,6.16,3.47,0,7.08-3.38,10.05-8.94M82.08,733h4.26l-6.76,18.48c-.6,1.57.23,3.15,1.85,3.15,3.84,0,10.05-3.8,12.23-8.98h-1.2c-1.71,1.81-5,4.21-7.83,4.72l6.21-17.37h6.34l.79-2.64h-6.16l2.36-6.67h-2.45l-4.4,6.67-5.23.74v1.9ZM58.69,747.41c0-5.7,6.34-13.43,9.91-13.43.79,0,1.53.09,2.18.28l-3.7,9.86c-2.13,2.59-5.42,5.74-6.95,5.74-.88,0-1.44-.74-1.44-2.45M78.19,728.37l-1.94-.14-2.18,2.13h-.46c-10.56,0-19.68,11.85-19.68,20.47,0,2.41,1.48,3.8,3.8,3.8,2.73,0,5.42-3.89,8.43-8.06l-.14,1.48c-.37,4.26.93,6.58,3.15,6.58,2.59,0,4.95-4.03,6.76-8.01h-1.2c-1.25,1.81-2.41,2.87-3.33,2.87-.97,0-1.67-1.76,0-5.51l6.81-15.61ZM55.68,735.09c.88-3.01.42-5.65-1.9-5.65-2.73,0-3.43,2.08-6.21,8.06v-3.43c0-2.45-.79-4.63-3.01-4.63-2.59,0-4.95,4.03-6.76,8.01h1.2c1.25-1.81,2.41-2.87,3.33-2.87,1.11,0,1.71,1.71,0,5.51l-5,11.11c-.93,2.08.05,3.43,2.08,3.43,1.25,0,1.81-.32,2.32-1.67l4.91-13.01c1.39-1.71,2.64-3.2,4.21-4.86h4.82ZM20.21,753.7l.46-1.44c-6.16-1.16-6.95-1.16-4.49-7.87l2.5-6.9h6.81c3.06,0,3.1,1.25,2.64,4.58h1.76l4.08-11.16h-1.76c-1.53,2.64-2.73,4.58-6.07,4.58h-6.71l3.57-9.77c1.11-3.1,1.76-3.75,5.93-3.75h2.96c4.31,0,4.82,1.16,4.82,5.51h1.71l1.44-7.59H14.28l-.46,1.44c4.95,1.02,5.42,1.48,3.1,7.87l-5.56,15.19c-2.32,6.34-3.29,6.85-8.98,7.87l-.42,1.44h18.24Z"/>
      <path d="M145.52,674.98c1.71,0,3.2,1.3,2.41,4.58l-7.96,1.85c1.39-3.7,3.7-6.44,5.56-6.44M149.91,687.81h-1.57c-1.99,2.36-4.12,4.21-6.25,4.21s-3.29-1.3-3.29-4.21c0-1.2.14-2.41.37-3.52l12.83-4.21c2.5-5.93-.51-8.52-4.03-8.52-6.07,0-12.97,10.14-12.97,19.03,0,3.98,1.9,6.16,4.86,6.16,3.47,0,7.08-3.38,10.05-8.94M147.37,669.19l9.03-8.43v-.97h-4.86l-5.56,9.4h1.39ZM119.68,675.12h4.26l-6.76,18.48c-.6,1.57.23,3.15,1.85,3.15,3.84,0,10.05-3.8,12.23-8.98h-1.2c-1.71,1.81-5,4.21-7.83,4.72l6.21-17.37h6.34l.79-2.64h-6.16l2.36-6.67h-2.45l-4.4,6.67-5.23.74v1.9ZM113.93,674.24c.51-1.71-.65-2.69-1.53-2.69-3.7,0-8.1,3.33-9.86,8.01h1.2c1.2-1.71,3.24-3.61,5.14-3.94l-7.08,18.43c-.65,1.71.65,2.69,1.53,2.69,3.52,0,7.64-3.38,9.4-8.01h-1.2c-1.2,1.71-3.24,3.61-5.14,3.94l7.55-18.43ZM115.23,664.98c1.67,0,3.06-1.34,3.06-3.06s-1.39-3.06-3.06-3.06-3.06,1.39-3.06,3.06,1.34,3.06,3.06,3.06M90.6,692.67l12.92-33.85-.42-.51-8.1.93v.97l1.57,1.2c1.44,1.11.97,2.18-.32,5.6l-10.09,26.58c-.74,1.44.23,3.15,1.85,3.15,3.7,0,7.64-3.33,9.4-8.01h-1.2c-1.2,1.71-3.7,3.61-5.6,3.94M66.05,689.52c0-5.7,6.34-13.43,9.91-13.43.79,0,1.53.09,2.18.28l-3.7,9.86c-2.13,2.59-5.42,5.74-6.95,5.74-.88,0-1.44-.74-1.44-2.45M85.55,670.49l-1.94-.14-2.18,2.13h-.46c-10.56,0-19.68,11.85-19.68,20.47,0,2.41,1.48,3.8,3.8,3.8,2.73,0,5.42-3.89,8.43-8.06l-.14,1.48c-.37,4.26.93,6.58,3.15,6.58,2.59,0,4.95-4.03,6.76-8.01h-1.2c-1.25,1.81-2.41,2.87-3.33,2.87-.97,0-1.67-1.76,0-5.51l6.81-15.61ZM38.41,701.24c0-2.45,2.36-3.98,5.74-5.33,1.11.56,2.78,1.16,5,1.9,3.52,1.16,4.86,1.62,4.86,2.69,0,2.27-3.84,3.98-9.08,3.98-4.4,0-6.53-.93-6.53-3.24M47.99,686.28c-1.53,0-2.13-1.3-2.13-2.78,0-4.12,2.22-10.19,5.7-10.19,1.53,0,2.13,1.3,2.13,2.78,0,4.12-2.22,10.19-5.7,10.19M58.04,698.97c0-2.96-2.64-4.03-6.95-5.33-3.7-1.11-5.37-1.44-5.37-2.64,0-.97.79-2.13,2.36-2.96,6.07-.32,10-5.79,10-10.37,0-.97-.19-1.81-.51-2.55h5.14l.79-2.64h-8.15c-.97-.6-2.13-.93-3.29-.93-6.44,0-10.6,5.65-10.6,10.23,0,3.47,2.22,5.65,4.91,6.16-3.01,1.34-4.68,2.92-4.68,4.77,0,1.07.37,1.81,1.25,2.5-6.95,2.04-9.68,4.35-9.68,7.64s4.21,4.54,9.22,4.54c8.47,0,15.56-4.58,15.56-8.43M25.67,679.15c3.06,0,3.1,1.25,2.64,4.58h1.76l4.08-11.16h-1.76c-1.53,2.64-2.73,4.58-6.07,4.58h-6.71l3.38-9.31c1.11-3.1,1.76-3.7,5.93-3.7h2.96c4.31,0,4.82,1.16,4.82,5.46h1.71l1.44-7.59H14.28l-.46,1.44c4.95,1.02,5.42,1.48,3.1,7.87l-5.56,15.19c-2.32,6.34-3.29,6.85-8.98,7.87l-.42,1.44h28.43l5.09-8.06h-1.94c-3.24,3.06-7.32,5.97-13.01,5.97-7.55,0-6.85-.32-4.35-7.22l2.69-7.36h6.81ZM29.38,659.75l9.03-6.21v-.97h-5.46l-5,7.18h1.44Z"/>
      <path d="M142.5,617.1c1.71,0,3.2,1.3,2.41,4.58l-7.96,1.85c1.39-3.7,3.7-6.44,5.56-6.44M146.9,629.92h-1.57c-1.99,2.36-4.12,4.21-6.25,4.21s-3.29-1.3-3.29-4.21c0-1.2.14-2.41.37-3.52l12.83-4.21c2.5-5.93-.51-8.52-4.03-8.52-6.07,0-12.97,10.14-12.97,19.03,0,3.98,1.9,6.16,4.86,6.16,3.47,0,7.08-3.38,10.05-8.94M144.36,611.31l9.03-8.43v-.97h-4.86l-5.56,9.4h1.39ZM117.82,617.24h3.38l-6.76,18.48c-.6,1.57.23,3.15,1.85,3.15,3.84,0,10.05-3.8,12.23-8.98h-1.2c-1.71,1.81-5,4.21-7.83,4.72l6.21-17.37h6.34l.79-2.64h-6.16l2.36-6.67h-2.45l-4.4,6.67-4.35.74v1.9ZM114.49,619.32c.88-3.01.42-5.65-1.9-5.65-2.73,0-3.43,2.08-6.21,8.06v-3.43c0-2.45-.79-4.63-3.01-4.63-2.59,0-4.95,4.03-6.76,8.01h1.2c1.25-1.81,2.41-2.87,3.33-2.87,1.11,0,1.71,1.71,0,5.51l-5,11.11c-.93,2.08.05,3.43,2.08,3.43,1.25,0,1.81-.32,2.32-1.67l4.91-13.01c1.39-1.71,2.64-3.2,4.21-4.86h4.82ZM86.06,617.1c1.71,0,3.2,1.3,2.41,4.58l-7.96,1.85c1.39-3.7,3.7-6.44,5.56-6.44M90.46,629.92h-1.57c-1.99,2.36-4.12,4.21-6.25,4.21s-3.29-1.3-3.29-4.21c0-1.2.14-2.41.37-3.52l12.83-4.21c2.5-5.93-.51-8.52-4.03-8.52-6.07,0-12.97,10.14-12.97,19.03,0,3.98,1.9,6.16,4.86,6.16,3.47,0,7.08-3.38,10.05-8.94M59.01,635.11c-1.25,0-3.06-1.16-3.06-2.18,0-.32.56-1.76,1.25-3.57l2.08-5.51c2.22-2.64,5.6-5.46,7.5-5.46,1.16,0,2.04.74,2.04,2.45,0,5.05-4.72,14.26-9.82,14.26M73.6,618.81c0-3.75-1.39-5.14-3.98-5.14-3.24,0-6.3,3.43-9.35,7.59l7.73-20.33-.42-.51-8.1.93v.97l1.57,1.2c1.44,1.11.97,2.27-.32,5.6l-8.34,21.49c-.6,1.57-1.34,3.43-1.34,3.94,0,2.22,3.01,4.31,5.74,4.31,6.3,0,16.81-11.35,16.81-20.05M48.41,616.36c.51-1.71-.65-2.69-1.53-2.69-3.7,0-8.1,3.33-9.86,8.01h1.2c1.2-1.71,3.24-3.61,5.14-3.94l-7.08,18.43c-.65,1.71.65,2.69,1.53,2.69,3.52,0,7.64-3.38,9.4-8.01h-1.2c-1.2,1.71-3.24,3.61-5.14,3.94l7.55-18.43ZM49.71,607.1c1.67,0,3.06-1.34,3.06-3.06s-1.39-3.06-3.06-3.06-3.06,1.39-3.06,3.06,1.34,3.06,3.06,3.06M31.05,604.13H14.19l-.46,1.44c4.95,1.02,5.42,1.48,3.1,7.87l-5.46,15.19c-2.32,6.34-3.29,6.85-8.98,7.87l-.42,1.44h25.65l5.56-9.91h-1.94c-3.15,3.47-6.85,7.83-12.55,7.83-4.31,0-4.82-.74-2.5-7.22l5.46-15.19c2.27-6.34,3.29-6.85,8.98-7.87l.42-1.44Z"/>
      <g>
        <path d="M2.54,128.18h15.93l15.39,26.46,15.39-26.46h15.93v63h-12.78v-45.18l-14.04,23.58h-9l-14.04-23.58v45.18H2.54v-63Z"/>
        <path d="M82.82,128.18h12.78v63h-12.78v-63Z"/>
        <path d="M113.33,128.18h16.38l28.17,45.54v-45.54h12.78v63h-16.38l-28.17-45.54v45.54h-12.78v-63Z"/>
        <path d="M188.39,128.18h12.78v63h-12.78v-63Z"/>
        <path d="M222.5,173.9c3.78,4.86,8.82,7.74,13.95,7.74s8.1-2.7,8.1-7.2c0-11.61-28.62-8.46-28.62-29.79,0-9.99,8.28-18.27,20.34-18.27,9.45,0,16.65,4.23,22.05,10.62l-9.36,8.46c-3.69-4.77-7.83-7.92-12.6-7.92-4.5,0-7.47,2.88-7.47,6.66,0,11.43,28.62,8.19,28.62,29.79-.18,11.88-9.45,18.99-20.97,18.99-10.62,0-17.73-3.87-23.31-10.53l9.27-8.55Z"/>
        <path d="M264.08,128.18h51.66v11.61h-19.44v51.39h-12.78v-51.39h-19.44v-11.61Z"/>
        <path d="M327.08,128.18h36.72v10.62h-23.94v14.94h20.34v10.62h-20.34v16.2h23.94v10.62h-36.72v-63ZM328.16,110.63h13.14l10.17,12.15h-11.7l-11.61-12.15Z"/>
        <path d="M378.74,128.18h19.26c13.86,0,22.41,7.11,22.41,18.81,0,7.65-3.69,13.32-10.17,16.29l19.71,27.9h-15.03l-16.83-25.47h-6.57v25.47h-12.78v-63ZM391.51,138.8v16.29h7.2c5.4,0,8.55-3.15,8.55-8.28,0-4.77-3.15-8.01-8.55-8.01h-7.2Z"/>
        <path d="M438.13,128.18h36.72v10.62h-23.94v14.94h20.34v10.62h-20.34v16.2h23.94v10.62h-36.72v-63Z"/>
        <path d="M2.54,220.18h24.75c19.98,0,33.48,14.49,33.48,31.5s-13.5,31.5-33.48,31.5H2.54v-63ZM15.32,231.79v39.78h12.15c11.7,0,20.16-8.73,20.16-19.89s-8.46-19.89-20.16-19.89h-12.15Z"/>
        <path d="M73.19,220.18h36.72v10.62h-23.94v14.94h20.34v10.62h-20.34v16.2h23.94v10.62h-36.72v-63Z"/>
        <path d="M148.34,220.18h12.78v51.39h23.94v11.61h-36.72v-63Z"/>
        <path d="M215.03,220.18h16.74l23.85,63h-13.59l-6.03-16.38h-25.2l-6.03,16.38h-13.59l23.85-63ZM232.04,255.91l-8.64-23.67-8.64,23.67h17.28Z"/>
        <path d="M288.91,220.18h36.72v10.62h-23.94v14.94h20.34v10.62h-20.34v26.82h-12.78v-63Z"/>
        <path d="M398.26,251.68c0,18-13.59,33.3-33.39,33.3s-33.48-15.3-33.48-33.3,13.59-33.3,33.48-33.3,33.39,15.3,33.39,33.3ZM385.12,251.68c0-12.06-8.46-21.33-20.25-21.33s-20.34,9.27-20.34,21.33,8.46,21.33,20.34,21.33,20.25-9.27,20.25-21.33Z"/>
        <path d="M410.59,220.18h16.38l28.17,45.54v-45.54h12.78v63h-16.38l-28.17-45.54v45.54h-12.78v-63Z"/>
        <path d="M530.2,264.37l10.08,7.74c-5.76,7.83-15.12,12.87-26.55,12.87-19.89,0-33.48-15.3-33.48-33.3s13.59-33.3,33.48-33.3c11.43,0,20.79,5.13,26.55,12.78l-10.08,7.83c-3.6-5.13-9.27-8.64-16.47-8.64-11.88,0-20.34,9.27-20.34,21.33s8.46,21.33,20.34,21.33c7.2,0,12.87-3.51,16.47-8.64Z"/>
        <path d="M544.96,220.18h51.66v11.61h-19.44v51.39h-12.78v-51.39h-19.44v-11.61Z"/>
        <path d="M607.96,220.18h12.78v63h-12.78v-63Z"/>
        <path d="M699.94,251.68c0,18-13.59,33.3-33.39,33.3s-33.48-15.3-33.48-33.3,13.59-33.3,33.48-33.3,33.39,15.3,33.39,33.3ZM686.8,251.68c0-12.06-8.46-21.33-20.25-21.33s-20.34,9.27-20.34,21.33,8.46,21.33,20.34,21.33,20.25-9.27,20.25-21.33Z"/>
        <path d="M712.27,220.18h16.38l28.17,45.54v-45.54h12.78v63h-16.38l-28.17-45.54v45.54h-12.78v-63Z"/>
        <path d="M810.82,220.18h20.79c13.86,0,22.32,7.11,22.32,18.81s-8.46,18.72-22.32,18.72h-8.01v25.47h-12.78v-63ZM823.6,230.8v16.29h8.55c5.4,0,8.64-3.15,8.64-8.28,0-4.77-3.24-8.01-8.64-8.01h-8.55Z"/>
        <path d="M901.71,220.18h12.78v38.34c0,16.56-9.72,26.46-25.56,26.46s-25.47-9.9-25.47-26.46v-38.34h12.78v39.42c0,8.46,4.77,13.41,12.78,13.41s12.69-4.95,12.69-13.41v-39.42Z"/>
        <path d="M930.42,220.18h18.54c13.14,0,21.15,6.48,21.15,17.1,0,5.13-2.34,9.54-6.75,12.42,6.66,2.97,10.35,8.37,10.35,14.94,0,11.52-8.91,18.54-23.4,18.54h-19.89v-63ZM943.2,230.8v14.22h6.03c4.86,0,7.74-2.61,7.74-7.2s-2.88-7.02-7.74-7.02h-6.03ZM943.2,255.64v16.92h7.83c5.94,0,9.54-3.15,9.54-8.46s-3.6-8.46-9.54-8.46h-7.83Z"/>
        <path d="M986.94,220.18h12.78v51.39h23.94v11.61h-36.72v-63Z"/>
        <path d="M1035,220.18h12.78v63h-12.78v-63Z"/>
        <path d="M1131.57,287.58c1.35,0,3.15-.18,4.5-.72v10.8c-2.07.81-3.87,1.17-6.66,1.17-7.02,0-13.5-2.88-19.71-8.28l-7.47-6.66c-2.7.72-5.58,1.08-8.64,1.08-19.89,0-33.48-15.3-33.48-33.3s13.59-33.3,33.48-33.3,33.39,15.3,33.39,33.3c0,10.53-4.68,20.16-12.42,26.28l3.78,3.6c4.86,4.41,9.18,6.03,13.23,6.03ZM1113.84,251.68c0-12.06-8.46-21.33-20.25-21.33s-20.34,9.27-20.34,21.33,8.46,21.33,20.34,21.33,20.25-9.27,20.25-21.33Z"/>
        <path d="M1176.48,220.18h12.78v38.34c0,16.56-9.72,26.46-25.56,26.46s-25.47-9.9-25.47-26.46v-38.34h12.78v39.42c0,8.46,4.77,13.41,12.78,13.41s12.69-4.95,12.69-13.41v-39.42Z"/>
        <path d="M1205.19,220.18h36.72v10.62h-23.94v14.94h20.34v10.62h-20.34v16.2h23.94v10.62h-36.72v-63Z"/>
        <path d="M1250.55,297.57l8.19-26.91h12.87l-10.44,26.91h-10.62Z"/>
        <path d="M2.54,312.18h24.75c19.98,0,33.48,14.49,33.48,31.5s-13.5,31.5-33.48,31.5H2.54v-63ZM15.32,323.79v39.78h12.15c11.7,0,20.16-8.73,20.16-19.89s-8.46-19.89-20.16-19.89h-12.15Z"/>
        <path d="M73.19,312.18h36.72v10.62h-23.94v14.94h20.34v10.62h-20.34v16.2h23.94v10.62h-36.72v-63Z"/>
        <path d="M148.34,312.18h12.78v51.39h23.94v11.61h-36.72v-63Z"/>
        <path d="M215.03,312.18h16.74l23.85,63h-13.59l-6.03-16.38h-25.2l-6.03,16.38h-13.59l23.85-63ZM232.04,347.91l-8.64-23.67-8.64,23.67h17.28Z"/>
        <path d="M292.51,357.89c3.78,4.86,8.82,7.74,13.95,7.74s8.1-2.7,8.1-7.2c0-11.61-28.62-8.46-28.62-29.79,0-9.99,8.28-18.27,20.34-18.27,9.45,0,16.65,4.23,22.05,10.62l-9.36,8.46c-3.69-4.77-7.83-7.92-12.6-7.92-4.5,0-7.47,2.88-7.47,6.66,0,11.43,28.62,8.19,28.62,29.79-.18,11.88-9.45,18.99-20.97,18.99-10.62,0-17.73-3.87-23.31-10.53l9.27-8.55Z"/>
        <path d="M341.02,312.18h12.78v63h-12.78v-63Z"/>
        <path d="M371.53,312.18h15.93l15.39,26.46,15.39-26.46h15.93v63h-12.78v-45.18l-14.04,23.58h-9l-14.04-23.58v45.18h-12.78v-63Z"/>
        <path d="M451.81,312.18h20.79c13.86,0,22.32,7.11,22.32,18.81s-8.46,18.72-22.32,18.72h-8.01v25.47h-12.78v-63ZM464.59,322.8v16.29h8.55c5.4,0,8.64-3.15,8.64-8.28,0-4.77-3.24-8.01-8.64-8.01h-8.55Z"/>
        <path d="M505.54,312.18h12.78v51.39h23.94v11.61h-36.72v-63Z"/>
        <path d="M553.6,312.18h12.78v63h-12.78v-63Z"/>
        <path d="M584.11,312.18h36.72v10.62h-23.94v14.94h20.34v10.62h-20.34v26.82h-12.78v-63Z"/>
        <path d="M632.17,312.18h12.78v63h-12.78v-63Z"/>
        <path d="M707.23,356.37l10.08,7.74c-5.76,7.83-15.12,12.87-26.55,12.87-19.89,0-33.48-15.3-33.48-33.3s13.59-33.3,33.48-33.3c11.43,0,20.79,5.13,26.55,12.78l-10.08,7.83c-3.6-5.13-9.27-8.64-16.47-8.64-11.88,0-20.34,9.27-20.34,21.33s8.46,21.33,20.34,21.33c7.2,0,12.87-3.51,16.47-8.64Z"/>
        <path d="M743.95,312.18h16.74l23.85,63h-13.59l-6.03-16.38h-25.2l-6.03,16.38h-13.59l23.85-63ZM760.96,347.91l-8.64-23.67-8.64,23.67h17.28Z"/>
        <path d="M781.57,312.18h51.66v11.61h-19.44v51.39h-12.78v-51.39h-19.44v-11.61Z"/>
        <path d="M844.57,312.18h12.78v63h-12.78v-63Z"/>
        <path d="M936.54,343.68c0,18-13.59,33.3-33.39,33.3s-33.48-15.3-33.48-33.3,13.59-33.3,33.48-33.3,33.39,15.3,33.39,33.3ZM923.41,343.68c0-12.06-8.46-21.33-20.25-21.33s-20.34,9.27-20.34,21.33,8.46,21.33,20.34,21.33,20.25-9.27,20.25-21.33Z"/>
        <path d="M948.88,312.18h16.38l28.17,45.54v-45.54h12.78v63h-16.38l-28.17-45.54v45.54h-12.78v-63Z"/>
        <path d="M2.54,404.18h36.72v10.62H15.32v14.94h20.34v10.62H15.32v16.2h23.94v10.62H2.54v-63Z"/>
        <path d="M49.07,404.18h51.66v11.61h-19.44v51.39h-12.78v-51.39h-19.44v-11.61Z"/>
        <path d="M135.56,404.18h24.75c19.98,0,33.48,14.49,33.48,31.5s-13.5,31.5-33.48,31.5h-24.75v-63ZM148.34,415.79v39.78h12.15c11.7,0,20.16-8.73,20.16-19.89s-8.46-19.89-20.16-19.89h-12.15Z"/>
        <path d="M206.21,404.18h36.72v10.62h-23.94v14.94h20.34v10.62h-20.34v16.2h23.94v10.62h-36.72v-63Z"/>
        <path d="M281.35,404.18h12.78v51.39h23.94v11.61h-36.72v-63Z"/>
        <path d="M348.04,404.18h16.74l23.85,63h-13.59l-6.03-16.38h-25.2l-6.03,16.38h-13.59l23.85-63ZM365.05,439.91l-8.64-23.67-8.64,23.67h17.28Z"/>
        <path d="M415.45,404.18h51.66v11.61h-19.44v51.39h-12.78v-51.39h-19.44v-11.61Z"/>
        <path d="M478.45,404.18h19.26c13.86,0,22.41,7.11,22.41,18.81,0,7.65-3.69,13.32-10.17,16.29l19.71,27.9h-15.03l-16.83-25.47h-6.57v25.47h-12.78v-63ZM491.23,414.8v16.29h7.2c5.4,0,8.55-3.15,8.55-8.28,0-4.77-3.15-8.01-8.55-8.01h-7.2Z"/>
        <path d="M556.48,404.18h16.74l23.85,63h-13.59l-6.03-16.38h-25.2l-6.03,16.38h-13.59l23.85-63ZM573.49,439.91l-8.64-23.67-8.64,23.67h17.28Z"/>
        <path d="M606.88,404.18h16.38l28.17,45.54v-45.54h12.78v63h-16.38l-28.17-45.54v45.54h-12.78v-63Z"/>
        <path d="M685.54,449.89c3.78,4.86,8.82,7.74,13.95,7.74s8.1-2.7,8.1-7.2c0-11.61-28.62-8.46-28.62-29.79,0-9.99,8.28-18.27,20.34-18.27,9.45,0,16.65,4.23,22.05,10.62l-9.36,8.46c-3.69-4.77-7.83-7.92-12.6-7.92-4.5,0-7.47,2.88-7.47,6.66,0,11.43,28.62,8.19,28.62,29.79-.18,11.88-9.45,18.99-20.97,18.99-10.62,0-17.73-3.87-23.31-10.53l9.27-8.55Z"/>
        <path d="M734.05,404.18h36.72v10.62h-23.94v14.94h20.34v10.62h-20.34v26.82h-12.78v-63Z"/>
        <path d="M843.39,435.68c0,18-13.59,33.3-33.39,33.3s-33.48-15.3-33.48-33.3,13.59-33.3,33.48-33.3,33.39,15.3,33.39,33.3ZM830.26,435.68c0-12.06-8.46-21.33-20.25-21.33s-20.34,9.27-20.34,21.33,8.46,21.33,20.34,21.33,20.25-9.27,20.25-21.33Z"/>
        <path d="M855.73,404.18h19.26c13.86,0,22.41,7.11,22.41,18.81,0,7.65-3.69,13.32-10.17,16.29l19.71,27.9h-15.03l-16.83-25.47h-6.57v25.47h-12.78v-63ZM868.51,414.8v16.29h7.2c5.4,0,8.55-3.15,8.55-8.28,0-4.77-3.15-8.01-8.55-8.01h-7.2Z"/>
        <path d="M915.13,404.18h15.93l15.39,26.46,15.39-26.46h15.93v63h-12.78v-45.18l-14.04,23.58h-9l-14.04-23.58v45.18h-12.78v-63Z"/>
        <path d="M1011.33,404.18h16.74l23.85,63h-13.59l-6.03-16.38h-25.2l-6.03,16.38h-13.59l23.85-63ZM1028.34,439.91l-8.64-23.67-8.64,23.67h17.28Z"/>
        <path d="M1048.96,404.18h51.66v11.61h-19.44v51.39h-12.78v-51.39h-19.44v-11.61Z"/>
        <path d="M1111.95,404.18h12.78v63h-12.78v-63Z"/>
        <path d="M1203.93,435.68c0,18-13.59,33.3-33.39,33.3s-33.48-15.3-33.48-33.3,13.59-33.3,33.48-33.3,33.39,15.3,33.39,33.3ZM1190.79,435.68c0-12.06-8.46-21.33-20.25-21.33s-20.34,9.27-20.34,21.33,8.46,21.33,20.34,21.33,20.25-9.27,20.25-21.33Z"/>
        <path d="M1216.26,404.18h16.38l28.17,45.54v-45.54h12.78v63h-16.38l-28.17-45.54v45.54h-12.78v-63Z"/>
        <path d="M2.54,496.18h24.75c19.98,0,33.48,14.49,33.48,31.5s-13.5,31.5-33.48,31.5H2.54v-63ZM15.32,507.79v39.78h12.15c11.7,0,20.16-8.73,20.16-19.89s-8.46-19.89-20.16-19.89h-12.15Z"/>
        <path d="M73.19,496.18h36.72v10.62h-23.94v14.94h20.34v10.62h-20.34v16.2h23.94v10.62h-36.72v-63Z"/>
        <path d="M148.34,496.18h12.78v51.39h23.94v11.61h-36.72v-63Z"/>
        <path d="M182.45,522.1l8.1-25.92h12.96l-10.44,25.92h-10.62Z"/>
        <path d="M222.32,496.18h16.74l23.85,63h-13.59l-6.03-16.38h-25.2l-6.03,16.38h-13.59l23.85-63ZM239.33,531.91l-8.64-23.67-8.64,23.67h17.28Z"/>
        <path d="M315.83,540.37l10.08,7.74c-5.76,7.83-15.12,12.87-26.55,12.87-19.89,0-33.48-15.3-33.48-33.3s13.59-33.3,33.48-33.3c11.43,0,20.79,5.13,26.55,12.78l-10.08,7.83c-3.6-5.13-9.27-8.64-16.47-8.64-11.88,0-20.34,9.27-20.34,21.33s8.46,21.33,20.34,21.33c7.2,0,12.87-3.51,16.47-8.64Z"/>
        <path d="M330.59,496.18h51.66v11.61h-19.44v51.39h-12.78v-51.39h-19.44v-11.61Z"/>
        <path d="M393.58,496.18h12.78v63h-12.78v-63Z"/>
        <path d="M485.56,527.68c0,18-13.59,33.3-33.39,33.3s-33.48-15.3-33.48-33.3,13.59-33.3,33.48-33.3,33.39,15.3,33.39,33.3ZM472.42,527.68c0-12.06-8.46-21.33-20.25-21.33s-20.34,9.27-20.34,21.33,8.46,21.33,20.34,21.33,20.25-9.27,20.25-21.33Z"/>
        <path d="M497.89,496.18h16.38l28.17,45.54v-45.54h12.78v63h-16.38l-28.17-45.54v45.54h-12.78v-63Z"/>
        <path d="M596.44,496.18h20.79c13.86,0,22.32,7.11,22.32,18.81s-8.46,18.72-22.32,18.72h-8.01v25.47h-12.78v-63ZM609.22,506.8v16.29h8.55c5.4,0,8.64-3.15,8.64-8.28,0-4.77-3.24-8.01-8.64-8.01h-8.55Z"/>
        <path d="M687.34,496.18h12.78v38.34c0,16.56-9.72,26.46-25.56,26.46s-25.47-9.9-25.47-26.46v-38.34h12.78v39.42c0,8.46,4.77,13.41,12.78,13.41s12.69-4.95,12.69-13.41v-39.42Z"/>
        <path d="M716.05,496.18h18.54c13.14,0,21.15,6.48,21.15,17.1,0,5.13-2.34,9.54-6.75,12.42,6.66,2.97,10.35,8.37,10.35,14.94,0,11.52-8.91,18.54-23.4,18.54h-19.89v-63ZM728.83,506.8v14.22h6.03c4.86,0,7.74-2.61,7.74-7.2s-2.88-7.02-7.74-7.02h-6.03ZM728.83,531.63v16.92h7.83c5.94,0,9.54-3.15,9.54-8.46s-3.6-8.46-9.54-8.46h-7.83Z"/>
        <path d="M772.57,496.18h12.78v51.39h23.94v11.61h-36.72v-63Z"/>
        <path d="M820.63,496.18h12.78v63h-12.78v-63Z"/>
        <path d="M917.2,563.58c1.35,0,3.15-.18,4.5-.72v10.8c-2.07.81-3.87,1.17-6.66,1.17-7.02,0-13.5-2.88-19.71-8.28l-7.47-6.66c-2.7.72-5.58,1.08-8.64,1.08-19.89,0-33.48-15.3-33.48-33.3s13.59-33.3,33.48-33.3,33.39,15.3,33.39,33.3c0,10.53-4.68,20.16-12.42,26.28l3.78,3.6c4.86,4.41,9.18,6.03,13.23,6.03ZM899.47,527.68c0-12.06-8.46-21.33-20.25-21.33s-20.34,9.27-20.34,21.33,8.46,21.33,20.34,21.33,20.25-9.27,20.25-21.33Z"/>
        <path d="M962.1,496.18h12.78v38.34c0,16.56-9.72,26.46-25.56,26.46s-25.47-9.9-25.47-26.46v-38.34h12.78v39.42c0,8.46,4.77,13.41,12.78,13.41s12.69-4.95,12.69-13.41v-39.42Z"/>
        <path d="M990.82,496.18h36.72v10.62h-23.94v14.94h20.34v10.62h-20.34v16.2h23.94v10.62h-36.72v-63Z"/>
      </g>
      <g>
        <path class="cls-1" d="M95.01,74.76c.9-.9,1.81-1.87,2.71-2.84h-.02c1.68-1.91,3.33-3.72,5.29-5.39.59-.53,1.17-1,1.72-1.38.16-.16.16-.48.32-.63-.79.32-1.27.95-2.06,1.27-.16,0-.32-.16-.16-.32.56-.42,1.13-.85,1.69-1.27-.03,0-.07,0-.11,0-.16,0-.16-.16-.16-.32-2.06-.32-3.65,1.11-5.07,2.38-.32.16-.63-.16-.79-.16-2.38.79-4.12,2.85-6.5,3.8v-.32c-.95.32-1.87.89-2.85,1.11-1.43.32-2.69.16-3.96.16-1.92.19-3.84.62-5.76,1.03-.06.01-.11.03-.17.04-1.03.28-2,.67-2.95,1.19-.04.02-.07.04-.11.06-.08.1-.16.19-.23.27-.34.37-.63.72-1.09.95-.97.5-1.77,1.36-2.63,2.06-.06.05-.16.07-.25.08-.85.82-1.69,1.64-2.55,2.44-.06.06-.31.09-.48.06,0,0,.01,0,.01-.01.03-.05.06-.1.09-.15.13-.22.27-.45.41-.67.15-.25.31-.49.47-.74.22-.33.44-.65.67-.96.06-.08.04-.15,0-.21-.05-.05-.13-.08-.22-.08.79-.77,1.73-1.42,2.66-1.99,0,0,0-.02,0-.03-.11.04-.26-.05-.18-.16.1-.14.18-.29.27-.43.02-.05.03-.09.05-.14-.04-.04-.08-.08-.12-.13-.26.17-.53.32-.74.52-.38.34-.68,1.04-1.25,1.03-.04,0-.15,0-.24-.03-.07-.01-.13-.03-.17-.06,0-.01.01-.02.02-.04,0-.01.02-.03.02-.04,0-.01.02-.03.02-.04.02-.05.05-.09.08-.14.03-.05.05-.09.08-.14.02-.04.04-.07.06-.11.04-.07.07-.13.11-.2.03-.05.06-.1.08-.14.07-.12.14-.23.2-.35.03-.06.07-.11.1-.17.06-.1.11-.19.17-.29.08-.13,0-.24-.12-.28.29-.38.65-.7,1.09-.95h-.05c.61-.31,1.21-.68,1.82-1.02.09-.08.17-.15.26-.23-.9.3-1.72.71-2.52,1.24,0,0-.21.09-.27.14,0,0-.18.07-.4-.14-.02-.03-.04-.06-.04-.12.16-.32.63-.48.95-.79.16,0,.32,0,.32.16,5.07-3.96,12.04-3.01,17.91-5.07.48-.32.95-.63,1.43-.95.79-.32,1.43-1.11,2.38-1.58,1.27-.95,2.22-2.06,2.69-3.64,0-.16-.16-.32-.16-.32-2.06,2.22-4.44,3.96-6.97,5.23-3.33,1.74-6.97,1.43-10.46,1.9.16-.32.48-.32.79-.32,0-.48.32-.63.63-.95h.48c.16,0,.16-.32.32-.32.32,0,.79-.16.63-.16-.48-.63-1.43.48-2.22,0,.32-.32.16-.79.48-.95h.63c0-.32.32-.63.32-.63,2.38-1.43,4.6-2.54,6.81-3.8-.48,0-.79.48-1.27.16.32,0,0-.48.32-.48,1.74-.48,3.17-1.43,4.91-2.06-.63,0-1.11.48-1.74,0,.32-.16.48-.48.95-.48v-.48c0-.16.16-.16.32-.16-.16,0-.32-.16-.32-.16.16-.32.63-.16.95-.48-.16,0-.48,0-.48-.16.48-.63,1.27-.79,2.06-.95-.16-.32-.63,0-.63-.32,0-.16.16-.16.32-.16h-.32c-.32-.16-.16-.48-.16-.63.95-1.11.95-2.54,1.43-3.8-.16,0-.32,0-.32-.16-1.58,1.74-4.12,2.38-6.5,3.01h-.79c-.79.32-1.9.32-2.69-.16-.63-.32-.95-.79-1.58-1.27-1.27-.79-2.54-1.43-3.96-1.9-3.96-1.27-8.08-1.9-12.2-1.74,1.74-.95,3.67-1.03,5.55-1.58,2.69-.79,5.23-1.74,8.08-1.58-.48-.16-1.11,0-1.58,0-2.22-.16-4.44.48-6.81.95-1.58.32-3.01.95-4.6,1.27-.95.32-1.43,1.27-2.54,1.11v-.48c1.58-1.9,3.49-3.8,6.02-3.96,2.85-.48,5.55,0,8.4.32,2.06.16,3.96.63,6.02,1.11.79,0,.95,1.27,1.59,1.43.95.32,1.9,0,2.85.63,0-.32-.16-.63,0-.95.63-.63,1.43.16,2.06-.16,1.27-.79-1.11-2.22-1.74-3.33,0-.16.16-.32.16-.32,1.27,1.11,2.22,2.38,3.8,3.17.79.32,2.69.79,2.38-.16-.79-1.74-2.38-3.17-3.64-4.75v-.63c-.32,0-.32-.16-.48-.32v-.63c-.63-.32-.48-.95-.79-1.43-.48-.79-.16-1.9-.48-2.85-.32-.95-.48-1.74-.63-2.69-.48-2.69-1.11-5.07-1.43-7.61-.32-3.01,1.74-5.39,3.17-8.08,1.11-1.9,2.38-3.8,4.44-5.07.48-1.9,1.74-3.49,3.01-5.07,1.27-1.55,3.37-2.49,4.89-3.17,2.21-.99,4.21-1.61,4.21-1.61H-.33v83.86h77.02c3.02-2.17,6.03-3.2,10.24-5.28,1.99-.98,6.54-3.07,8.08-4.61ZM70.64,63.41c-.32,0-.95.16-.79-.16.16-.79,1.27-.79,1.9-1.11.32-.16.79-.48,1.11-.32.32.48.79.32,1.11.63-.95.95-2.22.48-3.33.95ZM46.39,59.92s-.16-.16-.16-.32c2.06-2.69,3.64-5.23,5.07-8.08,2.06-1.11,3.77-2.72,5.39-4.44,2.69-2.85,5.55-5.39,8.87-6.97,1.27-.48,2.85-.32,4.12.16-.48.63-1.27.48-1.9.95-.16,0-.32,0-.48-.16.16-.16.16-.32.16-.48-1.58,1.74-3.8,2.54-5.07,4.6-.95,1.58-1.58,3.65-3.64,4.12-.63.16.16-.48-.16-.32-4.91,3.01-8.4,6.66-12.2,10.93ZM59.55,49.46c-.16.32-.33.35-.48.63-.16.32-.32.48-.63.63-.16,0-.32,0-.32-.16.16-.63.63-1.27,1.27-1.43.16,0,.16.16.16.32ZM66.91,73.2c-.07.17-.23.32-.39.46.2.04.34.13.21.25-.37.34-.72.68-1.2.84-.03.01-.13.03-.24.03-.19.19-.39.37-.59.55-.19.17-1.06.05-.79-.19.4-.36.77-.74,1.17-1.11.22-.2.46-.4.66-.63.11-.13.2-.25.34-.35.13-.09.97-.17.84.15ZM64.07,71.89s-.03.02-.04.03c-.59.42-1.18.84-1.81,1.21-.68.39-1.39.69-2.09,1.03,0-.01-.01-.03-.02-.04-.05-.07-.16-.12-.27-.06-.6.32-1.11.75-1.6,1.21-.07.07-.15.14-.22.21,0,0,0,0-.01.01,0,0,0,0-.01.01-.08.07-.15.15-.23.22,0,0-.02.02-.03.03,0,0,0,0,0,.01-.11.11-.22.23-.34.37-.08.09-.11.15-.21.22-.1.07-.37.06-.35-.12,0-.01,0-.02,0-.03-.09.05-.19.1-.28.14-.09.04-.17.09-.25.14-.03-.01-.07-.02-.11-.02-.04,0-.08.01-.11.04-.19.15-.39.31-.57.48-.33.3-.64.63-.92.98,0,0,0,0-.01.01-.01.01-.02.03-.03.04-.02.02-.03.04-.05.06-.02.02-.03.04-.05.07,0,0-.01.01-.02.02-.04.05-.07.11-.11.16,0,0,0,0,0,0-.03.03-.07.05-.13.06-.02-.03-.04-.06-.06-.09-.02-.02-.03-.05-.04-.08-.05-.08-.09-.17-.14-.25,0,0,0,0,0,0-.01-.03-.03-.05-.04-.08.17-.18.34-.38.5-.57.01-.01.02-.03.03-.04.06-.07.11-.14.16-.2.09-.11.18-.23.27-.34.03-.04.06-.08.1-.13.17-.23.34-.45.5-.67,0,0,0-.01.01-.02.02-.03.05-.07.07-.1.08-.11.15-.23.22-.34.06-.1.12-.21.17-.32,0,0,0-.02.01-.02,0-.01.01-.02.02-.03,0-.02.02-.04.03-.06.06-.12.11-.24.15-.37,0-.01,0-.03.01-.04.01-.03.02-.07.04-.1.02-.06.03-.12.05-.17h0s0-.03,0-.04c.02-.08.04-.15.06-.23,0-.04,0-.08-.02-.11.17-.3.38-.58.63-.86-.02.01-.05.03-.07.04-.23.15-.38.35-.59.51-.17.13-.49-.08-.29-.24.14-.1.24-.22.36-.33,0,0,0-.02.02-.03.26-.26.51-.59.81-.8.18-.13.34-.24.49-.37.02-.02.05-.04.07-.06.11-.15.23-.28.35-.4,0,0,.01-.01.02-.02,1.52-1.46,4.07-1.4,6.07-2.33.79-.32,1.74.16,2.54,0,.48,0,.95,0,1.43.32-1.42.78-2.74,1.65-4.04,2.47ZM67.31,60.87c-.16-.16.48,0,.63-.32h-1.27c-.16,0-.16-.16-.16-.32-.79.16-1.74.48-2.54.63-1.11.32-2.06,1.11-3.33,1.43-1.74.63-3.17,2.06-5.07,2.69-.16,0-.16-.16-.16-.32.16-.48.79-.63,1.11-1.11,0-.16,0-.32-.16-.32,1.27-1.74,3.01-2.69,4.6-4.12v-.48c.48-.63,1.27-.95,1.58-1.74.16-.48.79-1.11,1.58-1.43-.16-.16-.48-.16-.48-.48-.63,0-1.27.32-1.9-.16.3-.3.63-.46.99-.56-.14-.03-.26-.1-.36-.23-.16-.32.31-.67.79-.79.63-.16,1.43-.16,1.9-.63-1.11-.16-2.38.32-3.49-.32.79-2.06,2.06-3.8,3.96-4.75.16,0,.48,0,.48.16,0,.79-.48,1.43-1.27,1.58,1.27.32,2.54.32,3.8.95-.16.32-.48.16-.63.16.79.48,1.74.16,2.54.79-.48.48-.95,0-1.43,0,4.91,1.43,10.14,2.54,14.26,5.7-3.49,1.74-7.13,2.54-10.93,3.33-.48,0-.79,0-1.27-.16,0,.16,0,.48-.16.48-.63,0-1.11,0-1.58.32-.63.32-1.59.48-2.06,0Z"/>
        <path class="cls-2" d="M230.29.78h-90.21s.17.03.86.4c.73.39,1.68.9,2.28,1.21,1.16.61,2.29,1.37,3.02,2.54.32.48.79,1.43.48,2.06-.32.79-.48,2.06-1.27,2.38-.95.48-2.22.48-3.33.32-.63,0-1.27-.16-1.9-.32,2.38.95,4.6,2.06,6.18,4.28.16.32.79.48,1.43.48.16,0,.16.32.16.48-.32.32-.63.48-.48.95h.48c.79-.32.63-1.9,1.74-1.43.79.48,1.11,1.58.63,2.38-.63.63-1.27,1.11-1.9,1.58-.16.32-.16.79,0,1.11.48.63.63,1.27.79,1.9.48,1.11.63,2.38,1.11,3.49.63,2.38,1.27,4.75,1.11,7.13,0,1.27-.63,2.38-.16,3.64.32,1.27,1.11,2.22,1.74,3.33.63.95,1.27,1.58,1.74,2.54.95,1.58,2.69,3.17,1.9,5.07-.48,1.11-2.22.95-3.33,1.58-.95.79-.16,2.06.32,2.85.79,1.43-.95,2.38-2.06,2.85.32.48.95.32,1.11.63.16.79.95,1.27.48,2.06-.63.95-2.54,1.43-1.58,2.85.63,1.11.22,2.34-.16,3.49-.48,1.43-1.74,2.06-2.85,2.38-.95.32-2.06.32-3.01.16-.32-.16-.63-.32-.95-.32-2.69-.32-5.39-1.11-8.08-1.11-.79.16-1.58.32-2.22.63-.72.53-1.35,1.1-1.92,1.7,0,0-.01.01-.02.02-.12.13-.23.25-.35.38-.07.08-.14.16-.2.24-.05.05-.09.11-.13.16-.46.58-.88,1.19-1.25,1.83-.02.04-.05.08-.07.12-.04.07-.08.15-.12.22-.52.96-.91,1.95-1.2,2.91-1.08,3.63-.61,6.74.15,7.5.21.21,5.23,1.76,8.73,3.32,1.64.73,2.79,1.29,3.74,1.89h88.59V.78Z"/>
        <path class="cls-3" d="M145.44,31.38c.63.16,1.58.16,1.58.48-.32,1.27-2.22,1.58-3.17,2.85h-.48c-.48.32-.32,1.11-.79,1.11-.48-.16-.95,0-1.43.16.63.63,1.43,1.11,2.38.95.16,0,.48.32.48.63,0,0,.16,0,.32-.16.16,0,.32,0,.32.16v.63c-.48.63-1.27.32-1.9.48,1.27.32,2.54.32,3.64,0,.95-.32,0-1.9.63-2.69-.32,0,0-.48-.32-.48.32-.32.63-.79.95-.95.32,0,.79-.16.95-.48,0-.32-.63-.47-.48-.79.95-.63,1.74-1.58,1.43-2.54-.16-.48-1.43-.48-2.22-.79-.79-.32-1.74,0-2.69.16-.79,0-1.59.48-2.38.63-1.11.32-2.06.95-3.01,1.58,1.11-.48,2.22-.63,3.49-.95.95,0,1.76-.23,2.69,0Z"/>
      </g>
    </g>
  </g>
</svg>