<svg width="18" height="17" viewBox="0 0 18 17" xmlns="http://www.w3.org/2000/svg">
    <path d="M13.627 12.513 17 15.885 15.885 17l-3.372-3.373a7.057 7.057 0 0 1-4.424 1.55A7.091 7.091 0 0 1 1 8.09 7.091 7.091 0 0 1 8.089 1a7.091 7.091 0 0 1 7.088 7.089 7.057 7.057 0 0 1-1.55 4.424zm-1.58-.585a5.495 5.495 0 0 0 1.555-3.84A5.512 5.512 0 0 0 8.09 2.576 5.511 5.511 0 0 0 2.575 8.09a5.512 5.512 0 0 0 5.514 5.513 5.495 5.495 0 0 0 3.84-1.555l.118-.119z"
          fill="#000091" stroke="#000091" stroke-width=".4" fill-rule="evenodd"/>
</svg>
