<svg width="18" height="14" xmlns="http://www.w3.org/2000/svg">
    <g fill="#000091" fill-rule="nonzero">
        <path d="M13.5 14H1.929A1.919 1.919 0 0 1 0 12.09V5.728c0-1.054.863-1.909 1.929-1.909H13.5c1.065 0 1.929.855 1.929 1.91v6.363c0 1.054-.864 1.909-1.929 1.909zM1.929 5.09a.64.64 0 0 0-.643.637v6.364a.64.64 0 0 0 .643.636H13.5a.64.64 0 0 0 .643-.636V5.727a.64.64 0 0 0-.643-.636H1.929z"/>
        <path d="M17.357 10.182a.64.64 0 0 1-.643-.637V1.91a.64.64 0 0 0-.643-.636H4.5a.64.64 0 0 0-.643.636.64.64 0 0 1-.643.636.64.64 0 0 1-.643-.636C2.571.855 3.435 0 4.5 0h11.571C17.137 0 18 .855 18 1.91v7.635a.64.64 0 0 1-.643.637z"/>
        <path d="M.643 6.364h14.143v1.273H.643zM9.643 10.182h2.571v1.273H9.643z"/>
    </g>
</svg>
