<svg xmlns="http://www.w3.org/2000/svg" width="14" height="14" viewBox="0 0 14 14">
    <g fill="none" fill-rule="evenodd">
        <g fill="#000091">
            <g>
                <g>
                    <path d="M3 11.667H1c-.368 0-.667-.299-.667-.667V4.333c0-.368.299-.666.667-.666h2V1c0-.368.298-.667.667-.667h6.666c.369 0 .667.299.667.667v2.667h2c.368 0 .667.298.667.666V11c0 .368-.299.667-.667.667h-2V13c0 .368-.298.667-.667.667H3.667C3.298 13.667 3 13.368 3 13v-1.333zm0-1.334v-.666C3 9.298 3.298 9 3.667 9h6.666c.369 0 .667.298.667.667v.666h1.333V5H1.667v5.333H3zm1.333-8.666v2h5.334v-2H4.333zm0 8.666v2h5.334v-2H4.333zm-2-4.666h2V7h-2V5.667z"
                          transform="translate(-787 -193) translate(768 184) translate(19 9)"/>
                </g>
            </g>
        </g>
    </g>
</svg>
