<svg xmlns="http://www.w3.org/2000/svg" width="15" height="14" viewBox="0 0 15 14">
    <g fill="none" fill-rule="evenodd">
        <g fill="#FFF">
            <g>
                <g>
                    <g>
                        <g>
                            <g>
                                <path d="M10.303 9.495l2.448 2.447-.809.809-2.447-2.448c-.91.73-2.042 1.127-3.21 1.126-2.838 0-5.142-2.304-5.142-5.143 0-2.84 2.304-5.143 5.143-5.143s5.143 2.304 5.143 5.143c.001 1.167-.396 2.299-1.126 3.21zm-1.146-.424c.725-.745 1.13-1.745 1.129-2.785 0-2.21-1.79-4-4-4s-4 1.79-4 4 1.79 4 4 4c1.04.001 2.04-.404 2.785-1.129l.086-.086z"
                                      transform="translate(-385 -251) translate(75 242) translate(293.689) translate(17 9)"/>
                            </g>
                        </g>
                    </g>
                </g>
            </g>
        </g>
    </g>
</svg>
