<svg width="35" height="34" viewBox="0 0 35 34" fill="none" xmlns="http://www.w3.org/2000/svg">
<path d="M31.8496 26.9198V28.477H3.82085V26.9198L6.93515 23.8055V14.4626C6.93515 9.63544 10.0962 5.38441 14.7209 4.01412C14.7209 3.85841 14.7209 3.71826 14.7209 3.56255C14.7209 2.73658 15.049 1.94445 15.6331 1.3604C16.2171 0.776355 17.0093 0.448242 17.8352 0.448242C18.6612 0.448242 19.4533 0.776355 20.0374 1.3604C20.6214 1.94445 20.9495 2.73658 20.9495 3.56255C20.9495 3.71826 20.9495 3.85841 20.9495 4.01412C25.5743 5.38441 28.7353 9.63544 28.7353 14.4626V23.8055L31.8496 26.9198ZM20.9495 30.0341C20.9495 30.8601 20.6214 31.6522 20.0374 32.2363C19.4533 32.8203 18.6612 33.1484 17.8352 33.1484C17.0093 33.1484 16.2171 32.8203 15.6331 32.2363C15.049 31.6522 14.7209 30.8601 14.7209 30.0341M29.9031 2.30125L27.692 4.51241C30.3547 7.144 31.8496 10.7254 31.8496 14.4626H34.9639C34.9639 9.90016 33.1576 5.50899 29.9031 2.30125ZM0.706543 14.4626H3.82085C3.82085 10.7254 5.31571 7.144 7.97844 4.51241L5.76729 2.30125C2.51284 5.50899 0.706543 9.90016 0.706543 14.4626Z" fill="#060694"/>
</svg>
