<svg xmlns="http://www.w3.org/2000/svg" width="24" height="18" viewBox="0 0 24 18">
    <g fill="none" fill-rule="evenodd">
        <g fill="#000091" fill-rule="nonzero">
            <g>
                <g>
                    <path d="M22.225 3.057l-11.484.037L7.951.428C7.663.152 7.28-.001 6.885 0h-5.11C.79.006-.005.815 0 1.808v14.384c-.005.993.79 1.802 1.775 1.808h20.45c.985-.006 1.78-.815 1.775-1.808V4.866c.005-.993-.79-1.803-1.775-1.809zm-20.45-1.65h5.11c.04-.001.077.014.106.041l1.724 1.646h-7.32V1.808c-.004-.216.165-.396.38-.402zm20.83 14.785c.004.216-.165.396-.38.402H1.775c-.215-.006-.384-.186-.38-.402V4.5h10.223l10.604-.034c.215.005.386.183.383.4v11.326z"
                          transform="translate(-76 -943) translate(76 941) translate(0 2)"/>
                </g>
            </g>
        </g>
    </g>
</svg>
