<svg xmlns="http://www.w3.org/2000/svg" width="23" height="26" viewBox="0 0 23 26">
    <g fill="none" fill-rule="evenodd">
        <g fill="#000091" fill-rule="nonzero" stroke="#000091" stroke-width=".5">
            <g>
                <g>
                    <g>
                        <path d="M6.328 19.91h5.802v3.708c.02.093.081.173.166.218.09.048.198.037.276-.027l2.377-1.773 2.404 1.773.165.055.11-.055c.088-.029.151-.102.167-.19v-3.71h1.16c1.108 0 2.015-.87 2.045-1.964V3.11C21 1.5 19.618.273 17.96.273H2.847c-.11 0-.249-.082-.387-.082C1.814.184 1.193.43.732.875.27 1.32.007 1.927 0 2.564v8.727c0 1.036.94 1.8 1.99 1.8H4.42v4.854c-.015 1.06.834 1.934 1.907 1.964zm8.648-2.51c-1.446.011-2.756-.842-3.315-2.16-.559-1.316-.256-2.836.767-3.846 1.023-1.01 2.563-1.309 3.898-.757 1.334.551 2.198 1.844 2.187 3.272 0 1.928-1.583 3.491-3.537 3.491zm.166 4.09c-.085-.079-.219-.079-.304 0l-2.127 1.555-.056-5.836c.684.465 1.491.721 2.321.736.834.008 1.648-.25 2.321-.736v5.836l-2.155-1.554zM17.961.819c1.326 0 2.486.982 2.486 2.291v14.836c-.028.772-.655 1.39-1.436 1.419H17.85v-2.51h-.083c.836-.756 1.308-1.826 1.299-2.945.126-1.516-.622-2.974-1.935-3.77-1.313-.797-2.969-.797-4.282 0-1.313.796-2.061 2.254-1.935 3.77-.008 1.105.453 2.164 1.272 2.918h-.083v2.537H6.3c-.757-.044-1.342-.67-1.326-1.419V2.564c0-.737-.387-1.473-.912-1.746H17.96zM1.989 12.545c-.746 0-1.436-.518-1.436-1.254V2.564c0-.504.204-.987.568-1.34.363-.354.855-.55 1.366-.542v.136h.331c.885 0 1.603.818 1.603 1.746v9.981H1.99z"
                              transform="translate(-75 -892) translate(76 893)"/>
                        <path d="M7.682 7.364h9.809c.152 0 .276-.122.276-.273 0-.15-.124-.273-.276-.273H7.68c-.152 0-.276.122-.276.273 0 .15.124.273.277.273zM7.682 4.636h4.835c.153 0 .276-.122.276-.272 0-.151-.123-.273-.276-.273H7.682c-.153 0-.277.122-.277.273 0 .15.124.272.277.272z"
                              transform="translate(-75 -892) translate(76 893)"/>
                    </g>
                </g>
            </g>
        </g>
    </g>
</svg>
